/* XPM */
static char *ecb07312787740fa888d251be318547ekiQ3WWpaEDiDxsoh[] = {
/* columns rows colors chars-per-pixel */
"64 64 156 2 ",
"   c None",
".  c #130E04",
"X  c #150F0C",
"o  c #161107",
"O  c #17110B",
"+  c #1A140E",
"@  c #1D180D",
"#  c #1D1710",
"$  c #1E1811",
"%  c #241C12",
"&  c #242014",
"*  c #2C2316",
"=  c #27221B",
"-  c #2A241B",
";  c #2F2B1E",
":  c #312717",
">  c #332917",
",  c #352B19",
"<  c #392E1C",
"1  c #3C311D",
"2  c #06152B",
"3  c #08172B",
"4  c #0A182C",
"5  c #181F25",
"6  c #101E2F",
"7  c #111F30",
"8  c #172433",
"9  c #1A2634",
"0  c #212322",
"q  c #282928",
"w  c #353124",
"e  c #3B3320",
"r  c #393428",
"t  c #3F3C2E",
"y  c #212D38",
"u  c #27323B",
"i  c #29333C",
"p  c #32393C",
"a  c #45261D",
"s  c #40351F",
"d  c #472820",
"f  c #4C2E25",
"g  c #423522",
"h  c #423A27",
"j  c #4F3128",
"k  c #433C2A",
"l  c #53352C",
"z  c #423B36",
"x  c #463F39",
"c  c #503E31",
"v  c #5A3C34",
"b  c #44412D",
"n  c #464535",
"m  c #4C4331",
"M  c #4B4833",
"N  c #4B443E",
"B  c #4C4D3B",
"V  c #584337",
"C  c #56453F",
"Z  c #5D4339",
"A  c #534D3C",
"S  c #594A3C",
"D  c #4C513B",
"F  c #53503E",
"G  c #62453D",
"H  c #3B4344",
"J  c #404747",
"K  c #4D4641",
"L  c #414847",
"P  c #4F4940",
"I  c #494E4B",
"U  c #534B44",
"Y  c #594D43",
"T  c #564E48",
"R  c #4E534E",
"E  c #545542",
"W  c #5B5644",
"Q  c #555944",
"!  c #5C5B47",
"~  c #575049",
"^  c #595549",
"/  c #5B5C4A",
"(  c #545851",
")  c #644B42",
"_  c #694E46",
"`  c #605747",
"'  c #6E5249",
"]  c #605C4C",
"[  c #6C584C",
"{  c #72544C",
"}  c #645F53",
"|  c #6E5C50",
" . c #745B51",
".. c #7C5E55",
"X. c #5D604B",
"o. c #62644E",
"O. c #646453",
"+. c #6A6553",
"@. c #676954",
"#. c #6B6A57",
"$. c #646659",
"%. c #6A6658",
"&. c #66685A",
"*. c #6D6D59",
"=. c #6F6D5A",
"-. c #6F6D5B",
";. c #6C6D5D",
":. c #6F6D5C",
">. c #6C6C5A",
",. c #716657",
"<. c #7A6055",
"1. c #706957",
"2. c #706E5A",
"3. c #716F5D",
"4. c #756F5D",
"5. c #736C5A",
"6. c #7D695C",
"7. c #7C6B5D",
"8. c #7E6C5E",
"9. c #7B685A",
"0. c #71715C",
"q. c #71715D",
"w. c #72715D",
"e. c #72705E",
"r. c #73715E",
"t. c #72725E",
"y. c #73725E",
"u. c #73725F",
"i. c #74705D",
"p. c #74725F",
"a. c #72715E",
"s. c #747360",
"d. c #767260",
"f. c #767360",
"g. c #757460",
"h. c #767560",
"j. c #767561",
"k. c #767661",
"l. c #777662",
"z. c #767562",
"x. c #7C7362",
"c. c #787662",
"v. c #787763",
"b. c #787763",
"n. c #797863",
"m. c #7A7863",
"M. c #797864",
"N. c #797964",
"B. c #7A7964",
"V. c #7A7965",
"C. c #7A7864",
"Z. c #7B7A66",
"A. c #7C7B66",
"S. c #7D7C67",
"D. c #7B7964",
"F. c #806C5E",
/* pixels */
"                                                                                                                                ",
"                                                                                                                                ",
"                                                                                                                                ",
"                                                                                                                                ",
"                                                                                                                                ",
"                                                                                                                                ",
"                                                                                                                                ",
"                                                                                                                                ",
"                                                                                                                                ",
"                                                                                                                                ",
"                                                                                                                                ",
"                                                                                                                                ",
"                                                                                                                                ",
"                                                                                                                                ",
"                                                                                                                                ",
"                                                                                                                                ",
"                                                                                                                                ",
"                                                                                                                                ",
"                                                                                                                                ",
"                                                                                                                                ",
"                                                                                                                                ",
"                                                                                                                                ",
"                                                                                                                                ",
"                                                                                                                                ",
"                                                                                                                                ",
"                                                                                                                                ",
"                                                                                                                                ",
"                                                                                                                                ",
"                                                                                                                                ",
"                                                                                                                                ",
"                                                                                                                                ",
"                                                                                                                                ",
"                                                                                                                                ",
"                                                                                                                                ",
"                                                                                                                                ",
"                                                                                                                                ",
"                                                                                                                                ",
"                                                                                                                                ",
"                                                                                                                                ",
"                                                                                                                                ",
"                                                                                                                                ",
"                                                                                                                                ",
"                                                                                                                                ",
"                                                                                                                                ",
"                                                                                                                                ",
"                                                                                                                                ",
"                                                                                                                                ",
"                                                                                                                                ",
"                                                                                                                                ",
"                                                                                                      l.v.l.%.^ T ~             ",
"                                                                                                    v.l.3.O.^ U T T U           ",
"                                                        , , , , , * $ % > , , , , 1 s 1 > % +     v.v.l.O.P x x U T N z         ",
"                                                        > < g g < * % & > , , , , 1 s 1 : % $ n A.v.v.v.>.^ T E ~ ~ U N         ",
"                                              , , , , , , e V V g , , , , , , , , 1 s 1 : % - / Z.v.l.l.s.y.y.;.} ~ T T         ",
"                                            5 0 - , , , e k A S c m A m 1 , , < 1 s g > * r B @.Z.Z.y.O.#.l.=.] T K K K U       ",
"                                      4 4 4 4 4 0 , , 1 b B D F ) [ #.W e > , < 1 g 1 % = E p.l.l.l.@.E X.y.O.N x x x x U ~     ",
"                            2 2 4 4 4 4 4 4 3 4 0 < e b E o.o.O.,.+.W m 1 * % * * * * @ = / Z.Z.y.O.Q D ! y.>./ / / Y C Y       ",
"            o @           8 6 4 4 4 4 4 4 4 3 4 q h M E @.l.l.l.y.] h , , * $ # $ # + O = ^ Z.Z.=.Q D B ! y.v.s.s.4.| _         ",
"        o . o w =.S.l.Z.;.( H 8 2 3 4 4 4 4 2 4 p ! o.@.y.Z.Z.2.W b < > , : * * * % + O = ^ m.Z.y.@.! D ! y.x.8.F.7. .'         ",
"        o O & B y.Z.l.l.l.m.$.p 7 4 4 4 4 4 4 9 I y.l.y.l.v.Z.+.k > , , , , , 1 1 * + O = ^ v.m.v.l.@.Q / p.7.......' )         ",
"    o . o ; A @.l.v.l.l.v.A.l.$.J 8 2 4 2 4 u R >.l.@.X.=.Z.A.+.h : , < 1 < , 1 s * + X = ^ v.m.v.v.y.#.1.9.<.{ { { Z l         ",
"    o . o t 2.Z.l.l.l.v.l.>.&.&.R 9 2 4 2 4 H y.A.p.o.Q O.=.=.! h > , 1 s 1 < < < * + O = ^ v.m.l.l.l.y.5...{ ) G G l a         ",
"    o o           l.l.m.;.L u i y 6 3 4 2 4 H y.A.l.0.@.X.E M h < , 1 s g g 1 > % $ + O = ^ v.m.v.l.=.! ` ' G l j j f           ",
"    o o           l.l.Z.&.i 2 2 2 3 4 4 2 4 H y.Z.l.Z.y.! n e > , < s g g g g * + + + O = ^ v.m.v.v.@.D A ) v d a a             "
};
