/* XPM */
static char *_9f1280eb3e241cf9ac55cd0745b51f8eK826Xcug5OOBgdP[] = {
/* columns rows colors chars-per-pixel */
"64 64 156 2 ",
"   c None",
".  c #130E04",
"X  c #161107",
"o  c #17110C",
"O  c #1B140F",
"+  c #1E180F",
"@  c #1C1610",
"#  c #1F1812",
"$  c #231C12",
"%  c #231F18",
"&  c #262216",
"*  c #2C2316",
"=  c #26231D",
"-  c #2A251B",
";  c #2D291C",
":  c #312716",
">  c #332917",
",  c #302718",
"<  c #352B19",
"1  c #392E1B",
"2  c #3D321D",
"3  c #06162C",
"4  c #08172C",
"5  c #0A182C",
"6  c #151D27",
"7  c #191F25",
"8  c #121D2A",
"9  c #111F30",
"0  c #1C2125",
"q  c #1D2228",
"w  c #152232",
"e  c #192534",
"r  c #1C2835",
"t  c #242421",
"y  c #2B2924",
"u  c #342D20",
"i  c #363024",
"p  c #3D3421",
"a  c #373229",
"s  c #3A3529",
"d  c #3E3A2D",
"f  c #212431",
"g  c #222E38",
"h  c #2B353D",
"j  c #2F393F",
"k  c #353038",
"l  c #45261D",
"z  c #40341F",
"x  c #4C2E25",
"c  c #413621",
"v  c #443A25",
"b  c #4F3129",
"n  c #453D2A",
"m  c #4C3C2D",
"M  c #55362E",
"N  c #423B36",
"B  c #463E39",
"V  c #483F3A",
"C  c #533C31",
"Z  c #5A3C34",
"A  c #4B422D",
"S  c #454233",
"D  c #474D37",
"F  c #47403A",
"G  c #4A433E",
"H  c #4B4D3B",
"J  c #514635",
"K  c #55453E",
"L  c #5D433A",
"P  c #514B39",
"I  c #5C4C3F",
"U  c #4C523C",
"Y  c #57513E",
"T  c #5A513D",
"R  c #64463E",
"E  c #3C4445",
"W  c #414747",
"Q  c #4D4640",
"!  c #4E4840",
"~  c #484E4B",
"^  c #564240",
"/  c #534C44",
"(  c #5B4E41",
")  c #564E49",
"_  c #584F4A",
"`  c #545442",
"'  c #5A5443",
"]  c #565A44",
"[  c #5B5A46",
"{  c #5A544B",
"}  c #5C5D4A",
"|  c #545851",
" . c #5B5F55",
".. c #654A43",
"X. c #6A4E46",
"o. c #645044",
"O. c #615B46",
"+. c #6E5249",
"@. c #635E4C",
"#. c #6B5B4D",
"$. c #73544C",
"%. c #73594F",
"&. c #615C50",
"*. c #6F5E51",
"=. c #745B51",
"-. c #7B5C53",
";. c #5E614C",
":. c #5E6156",
">. c #60614D",
",. c #646452",
"<. c #6A6553",
"1. c #666854",
"2. c #6A6A55",
"3. c #656659",
"4. c #6A6758",
"5. c #6E6D5A",
"6. c #7C6056",
"7. c #706956",
"8. c #756759",
"9. c #7D6459",
"0. c #736D5B",
"q. c #7A6B5C",
"w. c #72725E",
"e. c #767561",
"r. c #797562",
"t. c #7A7A65",
"y. c #7E7D69",
"u. c #805F56",
"i. c #80665A",
"p. c #816C5F",
"a. c #897E6D",
"s. c #7E856C",
"d. c #84856F",
"f. c #81826C",
"g. c #868771",
"h. c #868C74",
"j. c #8A8B75",
"k. c #898D75",
"l. c #8D927A",
"z. c #92957E",
"x. c #90987F",
"c. c #959780",
"v. c #9E9783",
"b. c #939880",
"n. c #959881",
"m. c #9A9D85",
"M. c #A2A18B",
"N. c #A9AE95",
"B. c #AAAE95",
"V. c #AFB79C",
"C. c #B1B69C",
"Z. c #B1B99E",
"A. c #B5BBA0",
"S. c #B4BCA1",
"D. c #B8BFA4",
"F. c #BBC2A7",
/* pixels */
"                                                                                                                                ",
"                                                                                                                                ",
"                                                                                                                                ",
"                                                                                                                                ",
"                                                                                                                                ",
"                                                                                                                                ",
"                                                                                                                                ",
"                                                                                                                                ",
"                                                                                                                                ",
"                                                                            ) ) _                                               ",
"                                                                        / ) Q V K X.+.X.L                                       ",
"                                                                    N B / ) Q V K X.+.X.L x l                                   ",
"                                                                    G G / ) G B / #.=.$...Z b x                                 ",
"                                                                { ) ) ) ) ) G B { 0.q.-.$...Z x l                               ",
"                                                                _ ) ) ) { { Q B { w.r.i.-.+.L x l                               ",
"                                                                { ) G Q &.4.` F { w.r.9.-.+.L x l                               ",
"                                                                &.{ G G ,.w.@./ } w.r.9.-.$.R M x                               ",
"                                                                0.,.! F &.e.5.<.5.w.r.e.q.-.$.R C s ;                           ",
"                                                                t.5.{ / ,.e.f.d.g.d.t.w.0.9.9.9.*.' H                           ",
"                                                                y.e.4.<.5.y.c.N.C.N.k.,.@.0.a.v.M.m.x.                          ",
"                                                                <.5.w.e.e.y.m.A.F.V.k.;.[ 5.k.N.D.S.Z.                          ",
"                                                < < < < < 1 2 c d H <.t.t.t.j.n.l.s.w.1.2.w.f.z.b.h.s.                          ",
"                                              < < < < < < 2 z 1 $ y ` 0.e.e.t.e.,.] ;.w.e.e.t.t.w.;.`                           ",
"                                        : : : > < < < 1 2 2 c 1 * * s H <.t.t.w.2.>.1.e.t.r.e.e.5.,.;.                          ",
"                                      1 1 1 1 < < < < 1 2 z c 2 1 * $ ; / w.r.e.e.e.e.e.e.e.e.e.e.e.w.                          ",
"                                    R C m J P n < < < < < < 2 z 1 * + # a / <.r.t.t.t.t.t.t.t.t.t.t.                            ",
"                                  X.X...o.<.<.P 1 : < * $ * 2 z 1 * $ @ @ ; / w.r.e.e.e.e.e.e.e.e.                              ",
"                                  I o.#.*.#.' A 1 * * $ O $ < 2 1 < * $ O @ a / ` ` ` ` ` ` ' [ @.                              ",
"                                  H ` <.4.Y c 1 < * $ O O $ < < < < < * $ @ $ = = * * * = = u v A                               ",
"                                  ] ;.5.w.Y < : < * @ o O $ * < < < < < * $ O o o o O + + + * 1 z z                             ",
"                              D ` ,.w.e.e.<.            O $ * < < < < < < * $ @ o O $ * * * < 2 z c c                           ",
"                              ] ;.5.r.r.e.            @ $ $ : < < < < < 1 < & @ O $ * < < < p A A v z                           ",
"                          e.w.5.5.w.r.r.e.          O $ * : < < < < < < 2 2 * @ $ * < < < < n [ O.A z                           ",
"                          e.e.w.w.e.e.e.e.          $ $ < < < < < < < < 2 2 * $ * * < < : < A <.7.T A                           ",
"                      e.r.e.5.;.;.5.r.t.            * : < < < < < < < < 1 1 1 < * $ $   : < m #.q.<.@.` H                       ",
"                      e.r.r.5.[ ] 1.w.            < < < < < < < < < < < < 1 2 2 , @       < m $.i.r.0.} H                       ",
"                      e.r.r.w.2.,.;.}           < < < < < < < < < < < < 1 2 c c 1           L -.i.r.w.@.(                       ",
"                      e.e.w.w.w.2.] U         < < < < < < < < < < < < < 2 c z 2 2             -.9.q.0.*.+.                      ",
"                        2.;.;.;.} `         < 1 2 2 2 1 < < < < < < < < 2 c < * *             $.=.9.q.8.8.0.e.                  ",
"                          U U U U         < < 2 z c p 2 < < < < < < < < 2 2 * @               X.$.-.9.q.w.e.e.                  ",
"                            D D         1 < < 2 c i y y < ; t t ; < < < < * $                   +.$.%.@.,.5.e.r.                ",
"                                      < < < < 2 p y 8 0 ; = 6 6 - < < < $ # @                     X.o.` ] 1.e.r.e.e.            ",
"                                      t t t t u c y 5 8 0 7 5 8 - < - = % $ *                     I ' [ ;.5.e.r.e.e.            ",
"                                      5 5 5 8 y p y 5 5 5 5 5 6 - ; 0 6 = < < <                   H ` ,.w.e.e.e.e.e.            ",
"                                      4 4 4 5 q y q 5 4 4 4 5 6 - - 8 5 7 - < < -                   U ;.1.1.1.5.e.              ",
"                                  5 5 5 5 5 5 5 8 5 5 5             5 5 5 6 = < t 5                   ` ` ` ` ]                 ",
"                                  5 5 5 5 5 5 5 4 4 5                 5 4 5 0 t 7 5 4                   D D D                   ",
"                              5 5 5 5 5 5 5 5 5 5 5                     5 5 5 8 5 5 5                                           ",
"                              5 5 5 5 5 5 5 5 5 5                       5 5 5 5 5 5 5                                           ",
"                          5 5 5 5 5 5 5 5 5                             5 5 5 5 5 5 5 5                                         ",
"                          5 5 4 4 5 5 5 5                               5 5 5 5 5 5 5 5 5                                       ",
"                          5 4 3 3 4 5 5                                     5 5 5 5 5 5 5                                       ",
"                          5 5 w w 5 5                                       5 5 5 5 5 5 5                                       ",
"                          3 e E E r 5                                       3 5 3 3 3 5 5                                       ",
"                          9 j :.:.h 4                                       5 5 5 9 5 5 5                                       ",
"                        g E | 5.5.E                                       ^ f 5 g E h 8 3                                       ",
"                      5 j :.e.e.e.                                      $...k e E 3.~ e 3                                       ",
"                      5 E 5.t.r.r.                                      $.+./ W  .e.:.g                                         ",
"                          e.e.e.e.                                      -.6.8.5.e.e.w.                                          ",
"                          t.t.t.t.                                      p.p.r.t.y.t.                                            ",
"                          e.e.e.e.                                  u.9.q.e.r.r.e.                                              ",
"                        d ` ' ' '                                   L I ( ' ' ` S                                               ",
"                      X + & - - -                                   * * * - - - $ X                                             ",
"                      X X . . . .                                   . . . . . . . X X                                           "
};
