/* XPM */
static char *_b73cc3dbf57479ccdd363d05cba09bexA0arbcuuahy3r1e[] = {
/* columns rows colors chars-per-pixel */
"64 64 184 2 ",
"   c None",
".  c #130E04",
"X  c #150F0B",
"o  c #161107",
"O  c #17120E",
"+  c #1A140E",
"@  c #1D190E",
"#  c #1C1610",
"$  c #1F1913",
"%  c #181818",
"&  c #231B13",
"*  c #211F1B",
"=  c #252115",
"-  c #2B2315",
";  c #26231D",
":  c #2C261B",
">  c #2D281D",
",  c #302716",
"<  c #332917",
"1  c #312718",
"2  c #352B19",
"3  c #392E1B",
"4  c #37311E",
"5  c #3D321D",
"6  c #0E1825",
"7  c #06152B",
"8  c #08172C",
"9  c #09182C",
"0  c #141C26",
"q  c #1A1F24",
"w  c #131D2B",
"e  c #111F30",
"r  c #1B2026",
"t  c #15212C",
"y  c #1A242B",
"u  c #152232",
"i  c #1A2634",
"p  c #1C2936",
"a  c #232321",
"s  c #2C2820",
"d  c #332F24",
"f  c #382920",
"g  c #333225",
"h  c #3C3423",
"j  c #393827",
"k  c #34372D",
"l  c #3C3528",
"z  c #3D3A2A",
"x  c #202C30",
"c  c #2C2C36",
"v  c #222E38",
"b  c #322E36",
"n  c #2E3630",
"m  c #2F3935",
"M  c #25303A",
"N  c #29343C",
"B  c #2F393F",
"V  c #333B33",
"C  c #3E3A30",
"Z  c #45261D",
"A  c #41281E",
"S  c #40341F",
"D  c #4D2F26",
"F  c #423620",
"G  c #443A26",
"H  c #4C3228",
"J  c #433D2B",
"K  c #493F2A",
"L  c #55372F",
"P  c #413B34",
"I  c #463C3A",
"U  c #523D34",
"Y  c #5B3E35",
"T  c #3D4533",
"R  c #47402D",
"E  c #49402B",
"W  c #454332",
"Q  c #4C4532",
"!  c #464B36",
"~  c #4D4934",
"^  c #47413A",
"/  c #4A433D",
"(  c #474D38",
")  c #494E39",
"_  c #544334",
"`  c #534934",
"'  c #5F423A",
"]  c #534D3B",
"[  c #594C3E",
"{  c #4C523C",
"}  c #52543F",
"|  c #5A533E",
" . c #62463D",
".. c #634A3E",
"X. c #363F42",
"o. c #3C4445",
"O. c #4C4540",
"+. c #4F4941",
"@. c #434A49",
"#. c #4F4E4A",
"$. c #574641",
"%. c #5F4642",
"&. c #534B45",
"*. c #5C4D42",
"=. c #564E49",
"-. c #5E4F48",
";. c #4A504C",
":. c #535542",
">. c #595546",
",. c #565944",
"<. c #5B5A45",
"1. c #59524A",
"2. c #5C5C4A",
"3. c #555951",
"4. c #5E5C53",
"5. c #664C44",
"6. c #694D45",
"7. c #635346",
"8. c #6A5047",
"9. c #605B46",
"0. c #65544D",
"q. c #6C5249",
"w. c #635E4B",
"e. c #6D594E",
"r. c #73554D",
"t. c #625F51",
"y. c #6B5E52",
"u. c #765B52",
"i. c #7C5D54",
"p. c #5E614B",
"a. c #5E6156",
"s. c #62624E",
"d. c #69614E",
"f. c #656453",
"g. c #696454",
"h. c #666853",
"j. c #6A6A56",
"k. c #67685A",
"l. c #6E6D5A",
"z. c #736255",
"x. c #796256",
"c. c #7E665A",
"v. c #7C6559",
"b. c #736A59",
"n. c #706C59",
"m. c #716E5D",
"M. c #746B5A",
"N. c #7C685B",
"B. c #7D695C",
"V. c #7A6F5F",
"C. c #7A6A5C",
"Z. c #71715D",
"A. c #71715C",
"S. c #73735E",
"D. c #72715E",
"F. c #74735F",
"G. c #74745F",
"H. c #73725E",
"J. c #7A705F",
"K. c #79715F",
"L. c #757360",
"P. c #757460",
"I. c #767561",
"U. c #777662",
"Y. c #767561",
"T. c #7C7160",
"R. c #787763",
"E. c #7A7663",
"W. c #797764",
"Q. c #787562",
"!. c #787863",
"~. c #797864",
"^. c #797964",
"/. c #7A7964",
"(. c #7B7A66",
"). c #7B7A65",
"_. c #7C7B66",
"`. c #7D7C67",
"'. c #7A7964",
"]. c #7D7E68",
"[. c #806157",
"{. c #806259",
"}. c #806A5E",
"|. c #827F67",
/* pixels */
"                                                                                                                                ",
"                                                                                                                                ",
"                                                                                                                                ",
"                                                                                                                                ",
"                                                                                                                                ",
"                                                                                                                                ",
"                                                                                                                                ",
"                                                                                                                                ",
"                                                                                                                                ",
"                                                                                                                                ",
"                                                                                                                                ",
"                                                                =.1.1.=.1.1.1.1.1.1.1.                                          ",
"                                                              =.&.&.=.=.&.&.&.-.0.0.0.                                          ",
"                                                            1.&./ / &.=.O./ $.6.r.u.u.q.Y D Z                                   ",
"                                                            1.&./ / &.=./ I *.e.i.i.i.r. .L D                                   ",
"                                                            =.=.=.=.=.=./ ^ >.b.N.[.i.i.r.5.Y D Z                               ",
"                                                            4.1.=.=.1.>./ ^ 2.L.T.c.{.[.i.q.' D Z                               ",
"                                                            l.f.&.&.t.f.&.^ 2.L.R.K.B.{.i.q.' D Z                               ",
"                                                            ~.j.+./ f.m.2.&.t.U.~.R.C.c.i.r. .H A                               ",
"                                                            `.j.+./ f.U.l.j.m.R.~./.R.C.N.i.5.J d                               ",
"                                                            j.t.&.&.j.U.U.D.D.D.D.D.G.U.C.x.7.W g                               ",
"                                                    2 3 S G J ^ >.f.D.D.h.p.2.2.2.2.h.D.n.w.] ! T                               ",
"                                                    2 5 S 2 & g 2.U.~.D.p.{ { { { { s.D.j.,.{ ) )                               ",
"                                                2 2 2 5 S 2 - l f.`.~.F.j.p.} ) :.p.j.F.D.f.,.{ )                               ",
"                                              2 2 2 2 5 S 5 2 J w.L.U.U.U.D.2.} p.D.U.U.U.U.j.,.{                               ",
"                                              2 2 2 2 5 S 5 3 h W >.l.~.~.U.j.s.j.U.~.U.R.R.D.f.p.                              ",
"                                          2 2 2 2 2 2 3 S 5 3 - & d 2.U.~.U.U.D.U.U.U.U.U.U.U.D.D.                              ",
"                                          2 2 2 2 2 2 3 5 5 2 - @ & C >.l.~._.~.~.~.~.~.R.U.U.W.                                ",
"                                      2 2 2 2 2 2 2 2 2 2 2 2 - & # & d >.U.~.U.U.U.U.U.U.U.U.                                  ",
"                                      Q K h 2 < 2 2 2 2 2 2 2 - & O X & P >.2.>.>.>.2.s.j.F.                                    ",
"                                  6.q.g.w.Q 2 < 2 2 2 2 2 2 2 - & O O # = : s : > s h K `                                       ",
"                                  6.q.M.D.<.R h 2 2 2 2 2 2 2 , & # # + O O + @ @ & - 5 S                                       ",
"                                  6.q.b.U.D.s.Q 3 < 2 2 2 2 2 1 , - & + O + & - - - 2 5 S S S                                   ",
"                                  6.q.b.U.D.f.~ 3 < 2 2 2 2 2 2 3 1 & + # & - 2 2 2 h E K F S                                   ",
"                                  6.q.M.D.2.Q h 2 2 2 2 2 2 2 3 5 2 & # & - 1 2 2 2 Q 9.| G 5                                   ",
"                                  q.e.M.l.] 2 < 2 2 2 2 2 2 2 3 5 3 - & - , 2 2 < 2 ] j.d.` K                                   ",
"                                  b.b.Q.l.~ < , 2 2 2 2 2 2 2 2 3 3 2 1 - & -   < 3 _ z.M.d.<.{                                 ",
"                                  U.U.~.n.] h 2 2 2 2 2 2 2 2 2 2 3 5 5 - #       3 _ u.}.Q.j.,.)                               ",
"                                  ~.~.~.D.f.| J 2 < 2 2 2 2 2 2 3 5 F F 1           ..i.}.R.l.9.[                               ",
"                                  F.U.U.U.U.l.] 5 1 2 2 2 2 2 3 5 F S 5               i.c.K.b.e.8.                              ",
"                                  s.h.D.~._.U.<.J 4 2 2 2 2 2 3 S 5 2 :               r.u.N.N.z.z.                              ",
"                                  ) :.h.U.~.D.s.) z 3 2 2 2 2 3 5 5 - #               q.r.i.c.M.F.                              ",
"                                  J W ,.h.D.U.l.p.{ J g a ; 1 3 5 3 -                 6.r.r.u.g.h.l.                            ",
"                                  3 h W :.h.U.U.l.p.) n t q : 2 2 2                       q.7.:.,.j.U.                          ",
"                                0 a s j ~ <.h.j.h.p.{ m w 0 : 2 2 1 -                     *.>.<.s.l.U.                          ",
"                              9 9 6 r d G ~ } :.:.} ) m t 0 : 2 2 , & # - 2               ) ,.f.D.U.U.                          ",
"                              9 9 8 6 a d k V T ! { ( V y q a > 2 : $ % * ; a             ) :.s.l.G.U.                          ",
"                              9 9 9 9 w w t y x       g > a 0 r > : q 6 0 w 6 9           ) { :.2.l.U.                          ",
"                              9 9 9 9 9 8 8 8           2 a 6 w a a 0 9 8 9 9 9 9         ) ) ! :.j.U.                          ",
"                          9 9 9 9 9 9 9 8 8               q 9 9 w w 6 9 9 9 9 9 9 9                                             ",
"                          9 9 8 8 9 9 9 9                   9 9 9 9 9 9 9 9 9 9 9 9 9                                           ",
"                          9 8 7 7 8 9 9 9                     9 9 9 9 9 9 9 9 9 9 9 9 9                                         ",
"                          9 9 u u 9 9 9 9                       9 9 9 9 9 9 9 9 9 9 9 9 9                                       ",
"                          7 i o.o.p 9 7                           7 7 7 8 9 7 7 7 7 7 9 9                                       ",
"                          e B a.4.N 8                               w w 9 9 9 e u e 9 9 9                                       ",
"                        v o.3.D.f.N 8                             %.I b w 9 M o.@.@.N e 7                                       ",
"                      9 B a.U./.a.N 8                           q.8.6.$.c i @.l.U.l.@.u 7                                       ",
"                      9 o.l._./.k.X.                          v.z.z.z.y.#.@.a.R.|.~.;.i                                         ",
"                          U.R.U.L.                          i.v.C.F.F.F.l.l.L.U./.                                              ",
"                          ~.~.~.~.                        f U 7.n._.].].`._./.U.                                                ",
"                          U.U.U.U.                      o + & l s.~.                                                            ",
"                        z :.>.>.>.                      o . . = W :.z                                                           ",
"                      o @ = : : :                           o + = = @ .                                                         ",
"                      o o . . . .                           o o . . o o                                                         "
};
