/* XPM */
static char *aa042e76c5a34addcc81d5b663337ba3tEnWUY687LVd6vm8[] = {
/* columns rows colors chars-per-pixel */
"64 64 221 2 ",
"   c None",
".  c black",
"X  c #010101",
"o  c gray1",
"O  c #060606",
"+  c #0C0C0C",
"@  c gray5",
"#  c #0E0E0E",
"$  c gray6",
"%  c #101010",
"&  c #111111",
"*  c #131313",
"=  c gray8",
"-  c #151515",
";  c #161616",
":  c #161717",
">  c gray9",
",  c #181818",
"<  c #191919",
"1  c gray10",
"2  c #1B1B1B",
"3  c gray11",
"4  c #1D1D1D",
"5  c #1E1E1E",
"6  c gray12",
"7  c #1B1C21",
"8  c #1F2027",
"9  c #202020",
"0  c gray13",
"q  c #222222",
"w  c #232323",
"e  c gray14",
"r  c #252525",
"t  c gray15",
"y  c #272727",
"u  c #242529",
"i  c #252629",
"p  c #27282B",
"a  c #282828",
"s  c gray16",
"d  c #2A2A2A",
"f  c gray17",
"g  c #2C2C2C",
"h  c #2D2D2D",
"j  c #2C2C2E",
"k  c gray18",
"l  c #2F2F2F",
"z  c #30302F",
"x  c #2E3032",
"c  c gray19",
"v  c #313131",
"b  c #303232",
"n  c #323232",
"m  c gray20",
"M  c #343433",
"N  c #343434",
"B  c #353535",
"V  c #343636",
"C  c gray21",
"Z  c #373737",
"A  c gray22",
"S  c #393939",
"D  c #3A3A3A",
"F  c gray23",
"G  c #3C3C3C",
"H  c gray24",
"J  c #3E3E3E",
"K  c #3F3F3F",
"L  c #383C40",
"P  c #363C4A",
"I  c #363E56",
"U  c #363F5A",
"Y  c #3A425B",
"T  c gray25",
"R  c #414141",
"E  c gray26",
"W  c #434343",
"Q  c #424747",
"!  c #444444",
"~  c gray27",
"^  c #464646",
"/  c gray28",
"(  c #484848",
")  c #494949",
"_  c gray29",
"`  c #4B4B4B",
"'  c #4B4B4C",
"]  c #4C4C4C",
"[  c gray30",
"{  c #4E4E4E",
"}  c gray31",
"|  c #424A57",
" . c #574F5A",
".. c #505050",
"X. c #515151",
"o. c gray32",
"O. c #535353",
"+. c gray33",
"@. c #555555",
"#. c #565656",
"$. c gray34",
"%. c #51585E",
"&. c #585858",
"*. c #5A5A5A",
"=. c #5B5B5B",
"-. c gray36",
";. c gray37",
":. c #5F5F5F",
">. c #695853",
",. c #6A5B56",
"<. c #6E645C",
"1. c #7D6955",
"2. c #70655C",
"3. c #454E62",
"4. c #444B66",
"5. c #4D5563",
"6. c #4A5268",
"7. c #525A64",
"8. c #545866",
"9. c #585B66",
"0. c #5C636C",
"q. c #606060",
"w. c gray38",
"e. c #626262",
"r. c gray39",
"t. c #646464",
"y. c #656565",
"u. c gray40",
"i. c #6B6863",
"p. c #666868",
"a. c #636A6D",
"s. c #686868",
"d. c DimGray",
"f. c #6A6A6A",
"g. c gray42",
"h. c #6C6C6C",
"j. c #6D6D6D",
"k. c gray43",
"l. c #6F6F6F",
"z. c #7D746C",
"x. c gray44",
"c. c #717171",
"v. c #727272",
"b. c gray45",
"n. c #747474",
"m. c gray46",
"M. c #767676",
"N. c #777777",
"B. c gray47",
"V. c #797979",
"C. c gray48",
"Z. c #7B7B7B",
"A. c #7C7C7C",
"S. c gray49",
"D. c #7E7E7E",
"F. c #89643F",
"G. c #856545",
"H. c #856546",
"J. c #856646",
"K. c #866646",
"L. c #866647",
"P. c #866747",
"I. c #876747",
"U. c #8A6642",
"Y. c #8A6643",
"T. c #8A6743",
"R. c #886645",
"E. c #8A6744",
"W. c #8A6745",
"Q. c #8A6845",
"!. c #896847",
"~. c #8A6846",
"^. c #8A6947",
"/. c #866748",
"(. c #876748",
"). c #80664C",
"_. c #81674F",
"`. c #876848",
"'. c #876849",
"]. c #896948",
"[. c #886849",
"{. c #886949",
"}. c #896949",
"|. c #8A6948",
" X c #8A6949",
".X c #8A6A49",
"XX c #88694A",
"oX c #89694A",
"OX c #896A4A",
"+X c #896A4B",
"@X c #8A6A4A",
"#X c #8A6B4C",
"$X c #8B6B4C",
"%X c #886B4E",
"&X c #846B51",
"*X c #856C51",
"=X c #818181",
"-X c #838383",
";X c #848484",
":X c gray53",
">X c #888888",
",X c #898989",
"<X c #898A8B",
"1X c gray54",
"2X c #8B8B8B",
"3X c gray55",
"4X c #8E8E8E",
"5X c gray57",
"6X c #939393",
"7X c #959595",
"8X c gray59",
"9X c #979797",
"0X c #989898",
"qX c #9A9A9A",
"wX c #9B9B9B",
"eX c gray61",
"rX c gray62",
"tX c #9F9F9F",
"yX c #A0A0A0",
"uX c gray63",
"iX c #A2A2A2",
/* pixels */
"                                                                                                                                ",
"                                                                                                                                ",
"                                                                                                                                ",
"                                                                                                                                ",
"                                                                                                                                ",
"                                                                                                                                ",
"                                                                                                                                ",
"                    >XD.                                                                                                        ",
"                  C.C.C.C.C.C.M.    C.                    < o o o                                                               ",
"                  D.C.C.C.C.M.M.C.C.C.l.o.o.o.o.o.o.    D ; o o o                                                               ",
"                  C.C.C.C.C.C.C.M.C.C.t.o.o.o.{ { o.o.o.) n a a a                                                               ",
"                  C.C.C.C.C.C.C.C.C.C.r.) { { ) n ) ) ) o.o.o.o.o.o.o.                                                          ",
"                  l.r.g.b.M.C.C.C.C.M.+.J W W W n ~ * ; Z o.o.o.-.+.o.                                                          ",
"                  D.-.o.+.=.t.g.b.M.M.o.J J J D l Z o o @ n { o.r.r.o.                                                          ",
"                      C.g.+.{ o.o.=.r.o.J J J Z a { O e +.* ~ o.r.l.+.o.                                                        ",
"                        wX:XM.-.+.{ { o.W J J D n t.l * a @ ~ o.+.t.=.o.                                                        ",
"                            tX8X>Xg.=.o.W J J J l ) r.Z @ e ) o.+.r.=.o.                                                        ",
"                                yXwX6XC.+.W J J l Z ~ ~ D J ) =.b.g.+.)   ~                                                     ",
"                                  tXyXtX8Xl.{ W l D J J J J ) -.M.l.g.g.D.6Xg.                                                  ",
"                                  tXtXtXtXtX>XM.D J J J J J W +.b.C.8XyXyXwXr.                                                  ",
"                                    tX4X  >X8XyXD.r.~ J J J W +.b.M.r.l.6X6X)                                                   ",
"                                    :X-X  Z C.wXyX6X{ ) ~ ~ W +.b.M.r.-.t.>Xo.                                                  ",
"                                      :Xn n M.b.=.D.n D o.o.{ +.b.C.l.b.g.C.g.                                                  ",
"                                      -Xl.J g.t.4 a 9 l =.=.o.o.g.C.C.C.C.g.r.                                                  ",
"                                        C.M.wXt.4 4 4 e +.r.o.W ) r.-.M.C.C.C.C.                                                ",
"                                          -X-.D 4 4 4 9 o.o.D n Z a a o.M.C.C.C.                                                ",
"                                          9 a e < 4 4 4 D J n Z n 9 n a r.C.C.C.                                                ",
"                                            l D a < 4 4 Z D Z Z l 9 D 9     C.                                                  ",
"                                            4 Z n a < < a Z Z Z e 4 D n *                                                       ",
"                                              e l Z a 4 ; 4 4 4 < a D Z 9                                                       ",
"                                              ; n D D D n 9 4 4 n D D n a                                                       ",
"                                            4 a a Z D D D D D D D D D Z a @                                                     ",
"                                            ; 4 ; n D D D Z Z Z Z Z Z Z l @                                                     ",
"                                              < ; l D D D D Z Z Z Z D D l @                                                     ",
"                                              a 4 4 Z D D D D D D D D D Z <                                                     ",
"                                              @ < ; l D D D D D D D Z Z n a                                                     ",
"                                              < 9 < 9 l Z D D Z Z Z x l z n 9                                                   ",
"                                                4 4 < n n Z Z l n M n l i 8 7                                                   ",
"                                                4 4 < e D D n n n j u V I Y U                                                   ",
"                                                9 4 4 < n n l p x F | 7.6.8.i.1.#X#X                                            ",
"                                                r.a 4 < 9 a n P 3.a.p. .>.).#X#X#X#X+X                                          ",
"                                                >Xg.a < ; Q 5.0.9.2.&X#X#X#X#X#X#X#X'.P.                                        ",
"                                                  >Xg.a ; %.4.<.*X#X#X#X#X#X#X#X#X#X+X'.#X                                      ",
"                                                    >Xg.l ' ,.#X#X#X#X#X#X#X#X#X#X+X'.+X+X/.                                    ",
"                                                      >Xz.).#X#X#X#X#X#X#X#X+X+X+X#X'.P.!.R.F.                                  ",
"                                                          #X#X#X#X#X+X+X+X'.P.P.P.+XU.U.U.U.+X                                  ",
"                                                          #X+X+X#X#XP.+X+XP.+X!.U.U.!.+X+X#X#X#X                                ",
"                                                            P.#X#X+X/.#X+XU.U.R.+X#X#X#X'./.#X#X#X                              ",
"                                                            P.+X#X+X#X!.U.+X#X#X#X#X#X#X+XP.+X#X#X#X                            ",
"                                                              P.+X+XU.!.#X#X#X#X+X'.P.'.#X+XP.P.P.+X#X                          ",
"                                                              P.+XR.+X#X#X#X#X'.P./.+X+X#X#X+X+X+X#X#X#X                        ",
"                                                                U.+X#X#X#X#X+X/.+X#X#X#X#X#X#X#X#X#X#X#X#X                      ",
"                                                                  #X#X#X+X#X+X#X#X#X#X#X#X#X#X#X#X#X+X'.+X                      ",
"                                                                  #X#X'.'.#X#X#X#X#X#X#X#X#X#X#X#X#X#X'.P.+X#X                  ",
"                                                                    +XP.+X+X+X#X#X#X#X#X#X#X#X#X#X#X#X#X#X#X#X#X                ",
"                                                                    './.+XP.+X#X#X#X#X#X+X+X#X#X#X#X#X+XP.+X#X#X                ",
"                                                                    +X#X+XP.#X#X#X#X#X'.P.'.#X#X#X#X+XP.+X#X+X+X#X              ",
"                                                                      #XP.+X#X#X#X#X+X'.+X#X#X#X#X#X+XP.+X#X+XP./.+X            ",
"                                                                      #XP.+X#X#X#X#X/.+X#X#X#X#X#X#X#X+XP.#X#X#X'.'.#X          ",
"                                                                        P.+X#X#X#X#X+X#X#X#X#X#X#X#X#X#XP.+X#X#X#X#X#X          ",
"                                                                          #X#X#X#X#X#X#X#X#X#X#X#X#X#X#X+X#X#X#X#X#X#X#X        ",
"                                                                          #X#X#X#X#X#X#X#X#X#X#X#X#X#X#X#X#X#X#X#X#X#X#X        ",
"                                                                                                                                ",
"                                                                                                                                "
};
