/* XPM */
static char *b4dcf1f460454897aa8eb049a7b07ab1EO2DwIFlKa51qIXj[] = {
/* columns rows colors chars-per-pixel */
"64 64 119 2 ",
"   c None",
".  c #010101",
"X  c #0B0B0B",
"o  c #141414",
"O  c #1C1C1C",
"+  c #1C1E25",
"@  c #242424",
"#  c #222328",
"$  c #272828",
"%  c #2D2D2D",
"&  c #30302F",
"*  c #212430",
"=  c #2F3132",
"-  c #343434",
";  c #3A3A3A",
":  c #303959",
">  c #3C4040",
",  c #3C424B",
"<  c #434343",
"1  c #42474B",
"2  c #4C4C4C",
"3  c #424957",
"4  c #40485C",
"5  c #4C525A",
"6  c #525252",
"7  c #515759",
"8  c #575D5E",
"9  c #5D5D5D",
"0  c #6E635B",
"q  c #7F6751",
"w  c #7C6A57",
"e  c #73675B",
"r  c #766B5D",
"t  c #444E69",
"y  c #47516A",
"u  c #485269",
"i  c #535A64",
"p  c #595D68",
"a  c #5C6066",
"s  c #5D656C",
"d  c #646464",
"f  c #666867",
"g  c #6B6863",
"h  c #626A6C",
"j  c gray42",
"k  c #6F7070",
"l  c #747474",
"z  c #7A7571",
"x  c #7E7875",
"c  c #777778",
"v  c #777878",
"b  c #797979",
"n  c #9A3E06",
"m  c #9F450C",
"M  c #93491B",
"N  c #A34B12",
"B  c #A95016",
"V  c #AC551D",
"C  c #975932",
"Z  c #B76427",
"A  c #B76529",
"S  c #A1693F",
"D  c #C17237",
"F  c #C2743A",
"G  c #C77A3E",
"H  c #866646",
"J  c #8A6643",
"K  c #8A6846",
"L  c #866748",
"P  c #876849",
"I  c #8A6B4C",
"U  c #9D704F",
"Y  c #846B51",
"T  c #CA7D43",
"R  c #CD8445",
"E  c #CE8348",
"W  c #D28D45",
"Q  c #D38C4A",
"!  c #D6904E",
"~  c #D79756",
"^  c #DA9750",
"/  c #DC9C53",
"(  c #DFA253",
")  c #E3A757",
"_  c #E6AD5C",
"`  c #E8AF5A",
"'  c #E9B65B",
"]  c #EAB662",
"[  c #EDB962",
"{  c #F2C164",
"}  c #F7CE6B",
"|  c #F8D075",
" . c #FAD478",
".. c #FDDA7B",
"X. c #838383",
"o. c #8A8A8A",
"O. c #949494",
"+. c #9D9D9D",
"@. c #A39983",
"#. c #BBAA88",
"$. c #A5A49B",
"%. c #A1A1A1",
"&. c #E3BC80",
"*. c #FDDE87",
"=. c #EDD89B",
"-. c #FADF96",
";. c #FEE499",
":. c #C2C2B5",
">. c #FDE7A3",
",. c #FBE1A3",
"<. c #FAE7B1",
"1. c #FEEEBB",
"2. c #FEF1BF",
"3. c #FFF3BF",
"4. c #D0D1C3",
"5. c #D5D6C7",
"6. c #D8D7C7",
"7. c #FFF8D2",
"8. c #F8F9E5",
/* pixels */
"                                                                                                                                ",
"                                                                                                                                ",
"                                                                                                                                ",
"                                                                                                                                ",
"                                                                                                                                ",
"          E E W Q W ` _ E A N                                                                                                   ",
"m N V G R Q ^ / { -.*.*.| [ F N                                                                                                 ",
"    V T Q G R _ { ;.>.7.3.=.&.Z                                                                                                 ",
"      D D T ! )  ...3.8.6.$.@.S M                                                                                               ",
"          F Q ^ ] } 1.4.X.c c z z b b     b                                                                                     ",
"            T G Q ' <.5.X.b b b b b b b b b j 6 6 6   6         o . . .                                                         ",
"              D D ( ,.:.c b b b b b b b b b f 6 6 6 6 6 6 6 6 < O X X X                                                         ",
"                m V ~ #.v b b b b b b b b b d 1 2 2 2 ; 2 6 6 2 1 < < < 2                                                       ",
"                  n B U k d j l c b b b b c 6 ; < < < % 1 % - 2 6 6 6 7 6 6                                                     ",
"                      C x 9 6 6 7 f j l c c 6 ; ; ; ; - ; . . O 1 6 6 9 9 6                                                     ",
"                            b j 6 2 6 6 9 d 6 < ; < ; $ ; . o $ O 1 6 6 6 2 <                                                   ",
"                              +.o.c 9 6 2 6 6 < ; ; - % d o @ 6 X < 6 9 o.b j l b                                               ",
"                                  +.O.o.j 7 6 < ; ; ; % 9 6 o X o 1 6 6 O.%.%.o.d                                               ",
"                                      %.+.O.b 6 < ; ; % ; 6 1 $ - 1 6 f o.%.o.                                                  ",
"                                        +.%.+.O.j 1 ; % - ; ; ; ; 1 9 c o.+.f                                                   ",
"                                        +.+.+.+.+.b 6 - ; ; ; ; ; < 6 l X.o.9                                                   ",
"                                          +.o.  o.O.O.6 < < ; ; ; < 6 l b f f                                                   ",
"                                          o.X.    b %.+.X.6 < < ; < 6 l c d j                                                   ",
"                                            X.    j o.o.O.< < 2 2 1 6 l b j j                                                   ",
"                                            X.b 2 b 9 % 6 $ % 6 6 6 6 l b c c b                                                 ",
"                                            X.b X.O.; O O O $ 7 9 6 2 j c c b b b                                               ",
"                                              o.l 6 @ O O O ; 9 6 ; - < ; 6 c b b b                                             ",
"                                                $ % O O O O - 2 ; - - % @ % 6 b b b b                                           ",
"                                                O ; - o O O $ < - - - @ % - O b b b                                             ",
"                                                  % ; $ O O @ ; - - - @ % - O     b                                             ",
"                                                  @ - - $ o O $ % % $ o - ; $                                                   ",
"                                                  X $ - ; - $ O o o O % - - % o                                                 ",
"                                                  O @ ; ; ; ; - - - - ; ; ; % O                                                 ",
"                                                  $ @ $ ; ; ; ; ; ; ; ; ; ; - @                                                 ",
"                                                  X o O ; ; ; ; ; ; ; ; ; ; ; O                                                 ",
"                                                  O $ O - ; ; ; ; ; ; ; ; ; ; @                                                 ",
"                                                  o O O $ ; ; ; - - ; ; ; - ; $                                                 ",
"                                                    O O O - - ; - - - - - - - % O                                               ",
"                                                    O O o $ % - - - - - - % - - % o                                             ",
"                                                    O O O O - - ; % - - - % $ # + O                                             ",
"                                                    O O O o - - - & $ $ = > 3 4 : 5                                             ",
"                                                    ; O O o $ - % * , 9 a y u p g w I                                           ",
"                                                    X.< O O O - 1 i u s h a 0 Y I I I I                                         ",
"                                                      X.< O o 7 y s s f r Y I I I I I P H                                       ",
"                                                        X.< O 5 t f r Y I I I I I I I I P                                       ",
"                                                          X.6 1 e Y I I I I I I I I I P P P                                     ",
"                                                                I I I I I I I I P P I P H H P                                   ",
"                                                              I I I I I P P P H H H P K J J J K                                 ",
"                                                              P P I I P H P H P P J J K P P P I I                               ",
"                                                              H P I P H P P K J J P I I I P H P I I                             ",
"                                                              P P P I P P J K P I I I I I I P L I I I                           ",
"                                                              I P H I K J P I I I I P H H P I P H H P I                         ",
"                                                                P P K K P I I I P H H P P I I I P P P I                         ",
"                                                                  K K I I I I P H P I I I I I I I I I I I                       ",
"                                                                    P I I P I I P I I I I I I I I I I I P P                     ",
"                                                                      I P H P I I I I I I I I I I I I I P H P                   ",
"                                                                      I P H I P P I I I I I I I I I I I I I I I                 ",
"                                                                        H P P L I I I I I I P I I I I I I P P I I               ",
"                                                                        P I H P I I I I P H H P I I I I P H P P P P             ",
"                                                                        I P H I I I I I P P I I I I I I P L I I P H H           ",
"                                                                          P H I I I I P H I I I I I I I I H P I I P H           ",
"                                                                          P H I I I I I P I I I I I I I I P H I I I I I I       ",
"                                                                            P I I I I I I I I I I I I I I I P I I I I I I       ",
"                                                                              I I I I I I I I I I I I I I I I I I I I I I I     "
};
