/* XPM */
static char *_5d700cabfb34b84fec314b19ee47f65FpTdY5rcDlEOOfUb[] = {
/* columns rows colors chars-per-pixel */
"64 64 118 2 ",
"   c None",
".  c #010101",
"X  c #0C0C0C",
"o  c #151515",
"O  c #171718",
"+  c #1C1C1C",
"@  c #1D1F26",
"#  c #1F2122",
"$  c #232323",
"%  c #222429",
"&  c #2C2C2C",
"*  c #232732",
"=  c #333333",
"-  c #33373C",
";  c #35393A",
":  c #3A3A3A",
">  c #5A573B",
",  c #2E3340",
"<  c #3B3F40",
"1  c #2F3856",
"2  c #313A59",
"3  c #434343",
"4  c #4C4C4C",
"5  c #5E5B45",
"6  c #4C4E50",
"7  c #42495A",
"8  c #525252",
"9  c #56545C",
"0  c #51585E",
"q  c #5C5C5C",
"w  c #605A54",
"e  c #6E5C54",
"r  c #77634E",
"t  c #7D644B",
"y  c #7E6550",
"u  c #72665C",
"i  c #76685B",
"p  c #786A5A",
"a  c #454B65",
"s  c #505566",
"d  c #555C64",
"f  c #585A65",
"g  c #5E656B",
"h  c #646464",
"j  c #6D6C61",
"k  c #67686D",
"l  c #6C6C6C",
"z  c #737266",
"x  c #757575",
"c  c #7B7976",
"v  c #777779",
"b  c #777878",
"n  c #797979",
"m  c #A34412",
"M  c #A44A14",
"N  c #AB4C1C",
"B  c #B05123",
"V  c #B25A25",
"C  c #B75E2B",
"Z  c #B85E2D",
"A  c #B76529",
"S  c #BA6430",
"D  c #BD6933",
"F  c #B66F3E",
"G  c #C26F39",
"H  c #C27137",
"J  c #C6763E",
"K  c #856646",
"L  c #8A6643",
"P  c #8A6846",
"I  c #876748",
"U  c #876849",
"Y  c #8A6B4C",
"T  c #866C50",
"R  c #886C50",
"E  c #817F62",
"W  c #807973",
"Q  c #8A7F77",
"!  c #C97B40",
"~  c #948A2B",
"^  c #9D9439",
"/  c #BFB232",
"(  c #C1B21C",
")  c #EFDB0F",
"_  c #FCE601",
"`  c #A49C46",
"'  c #888564",
"]  c #84827A",
"[  c #9A9077",
"{  c #9C937B",
"}  c #A0816C",
"|  c #CD8644",
" . c #CF8843",
".. c #D18848",
"X. c #D49049",
"o. c #C28250",
"O. c #DD9C52",
"+. c #E0A155",
"@. c #E7AE5A",
"#. c #E8AE5A",
"$. c #C99B61",
"%. c #DAAE67",
"&. c #E5BA65",
"*. c #E8BC64",
"=. c #E7C97D",
"-. c #7F7F80",
";. c #838383",
":. c #8A8A8A",
">. c #959595",
",. c #939393",
"<. c #989898",
"1. c #9A9A9A",
"2. c #9B9B9B",
"3. c gray61",
"4. c #9D9D9D",
"5. c #9F9F9F",
"6. c #A49789",
"7. c #A0A0A0",
/* pixels */
"                                                                                                                                ",
"                                                                                                                                ",
"                                                                                                                                ",
"                N C V m A  .| $.6.                                                                                              ",
"                N Z S H O.+.&.[ n c                                                                                             ",
"                  B V H X.@.*.{ n n n n n                                                                                       ",
"                    M D J #.=.] v n n n n n n n                                                                                 ",
"                      D ..O.%.] b n n n n n n n n n l                                                                           ",
"                        G ! o.W x x n n n n n n n x 9 8                                                                         ",
"                          V F Q x x x x n n n n v E ~ 5     8 8 8 9 9                                                           ",
"                            M } -.n h q l x n n c / _ ` k 8 8 8 8 8 8 8 8 8 & . . .                                             ",
"                                  :.l 4 8 q l x z ( ) ' h 4 4 4 8 3 4 8 8 4 & X X .                                             ",
"                                    >.x 9 4 8 9 8 > ^ j 3 3 : 3 4 = 3 4 4 4 4 3 3 & &                                           ",
"                                      5.;.h 8 4 8 4 6 q 4 : : : : = 3 + X & 4 8 8 8 8 8                                         ",
"                                          ,.l 8 4 8 8 8 4 : : : = & = . . o 3 8 4 3 4 8                                         ",
"                                            2.;.q 8 8 8 8 3 : : = = q X & 8 % 4 8 3 3 4                                         ",
"                                            7.5.,.l 8 8 4 : : : : = q $ O % X 4 8 4 3 4                                         ",
"                                            5.5.>.2.;.9 4 3 : : = & 8 8 + O & 4 8 4 3 4                                         ",
"                                              :.;.  :.;.h 4 4 3 = & : 3 : : 3 8 4 3 3 4                                         ",
"                                              ;.    q 2.2.x 9 4 : = : : : : 3 4 3 3 3 3                                         ",
"                                              ;.;.  4 :.;.5.9 3 = 3 : : : : 3 4 3 3 3 3                                         ",
"                                              ;.;.: x q & 9 & : 3 4 4 : : : 3 8 4 3 3 3                                         ",
"                                                n x 2.q + + + & q q 8 4 3 3 3 9 h 3 3 3                                         ",
"                                                  n q = + + + = q q q 8 4 4 4 9 x h 8 3                                         ",
"                                                  & & + + + + : q 4 : : : 3 8 9 x n x 8                                         ",
"                                                  $ : = + + + & 3 = = = & & 3 8 l n n h                                         ",
"                                                  o = = % + + % : = = = $ = = : x n n x                                         ",
"                                                    & = = % O + = = = = + = = o   n n                                           ",
"                                                    O = : ; & + O + + + & : = +                                                 ",
"                                                  # $ & : : : = + + + & : : = $                                                 ",
"                                                  o O $ : ; : : : : : : : : = %                                                 ",
"                                                  o + # : ; ; : : : : : : : = &                                                 ",
"                                                  $ % O = : : : : : : : : : = &                                                 ",
"                                                  X + O = : : : : : : : : : = $                                                 ",
"                                                  + + O & = ; ; ; = = ; : = = %                                                 ",
"                                                    + + + & & = ; = = = = = = & X                                               ",
"                                                    + + O = = : = & = = = & = = +                                               ",
"                                                    + + O = = = = = = = & & % @ #                                               ",
"                                                  4 & + + # = = & & & * - , 1 2 w r                                             ",
"                                                    h % + O $ & < 7 0 d s 9 u i R Y Y                                           ",
"                                                    :.8 + O ; 7 g f u p y U Y Y Y Y Y U                                         ",
"                                                      n : + d a u T Y Y Y Y Y Y Y Y Y U K                                       ",
"                                                        n : 6 e Y Y Y Y Y Y Y Y Y Y Y U U Y                                     ",
"                                                            t Y Y Y Y Y Y Y Y Y Y Y U K K U K                                   ",
"                                                            Y Y Y Y Y Y U Y U I K U Y U L L L L                                 ",
"                                                          Y Y U U Y Y I U U K U U P L L P U U Y                                 ",
"                                                            U K Y Y U K U U P L L P U Y Y U U Y Y                               ",
"                                                            U U U Y U U U L L U U Y Y Y Y U K Y Y Y                             ",
"                                                              Y K U Y U P U Y Y Y Y U U U Y I U Y Y Y                           ",
"                                                                K U P L U Y Y Y U I K K U Y Y I K K U Y                         ",
"                                                                  P P Y Y Y Y U I I U Y Y Y Y Y U U Y Y Y                       ",
"                                                                  Y Y Y Y Y U U Y Y Y Y Y Y Y Y Y Y Y Y Y                       ",
"                                                                    Y Y U U Y Y Y Y Y Y Y Y Y Y Y Y Y U U U                     ",
"                                                                    Y U K Y U Y Y Y Y Y Y Y Y Y Y Y Y U K U Y                   ",
"                                                                    Y K U U K U Y Y Y Y Y Y Y Y Y Y Y Y Y Y Y Y                 ",
"                                                                      U Y K U Y Y Y Y Y U K U Y Y Y Y Y I U Y Y Y               ",
"                                                                      Y U K U Y Y Y Y U K U Y Y Y Y Y I I U U U U Y             ",
"                                                                      Y U K Y Y Y Y U U Y Y Y Y Y Y Y I U Y Y I K U             ",
"                                                                        U K Y Y Y Y U U Y Y Y Y Y Y Y Y K U Y Y U K U           ",
"                                                                          U Y Y Y Y Y Y Y Y Y Y Y Y Y Y U K Y Y Y Y Y Y         ",
"                                                                          Y Y Y Y Y Y Y Y Y Y Y Y Y Y Y Y U Y Y Y Y Y Y         ",
"                                                                            Y Y Y Y Y Y Y Y Y Y Y Y Y Y Y Y Y Y Y Y Y Y Y       ",
"                                                                                                                                ",
"                                                                                                                                "
};
