/* XPM */
static char *_283a7d4b53c4c4bc7271ecf000f3e4clchV79zLhNFcBtkO[] = {
/* columns rows colors chars-per-pixel */
"64 64 234 2 ",
"   c None",
".  c black",
"X  c #020202",
"o  c gray1",
"O  c #040404",
"+  c #060606",
"@  c #070707",
"#  c #0B0B0B",
"$  c #0B0C0C",
"%  c #111111",
"&  c gray7",
"*  c #131313",
"=  c gray8",
"-  c #151515",
";  c #161616",
":  c gray9",
">  c #181818",
",  c #191919",
"<  c gray10",
"1  c #1B1B1B",
"2  c gray11",
"3  c #1D1D1D",
"4  c #1E1E1E",
"5  c gray12",
"6  c #25221F",
"7  c #202020",
"8  c gray13",
"9  c #212323",
"0  c #222222",
"q  c #232322",
"w  c #232323",
"e  c gray14",
"r  c #252525",
"t  c gray15",
"y  c #272727",
"u  c #252628",
"i  c #272829",
"p  c #282828",
"a  c gray16",
"s  c #2A2A2A",
"d  c gray17",
"f  c #28292C",
"g  c #2C2C2C",
"h  c #2D2D2D",
"j  c gray18",
"k  c #2F2E2E",
"l  c #2F2F2E",
"z  c #2F2F2F",
"x  c #222735",
"c  c #202538",
"v  c #21273A",
"b  c #2F3030",
"n  c #2B303B",
"m  c gray19",
"M  c #313131",
"N  c #323232",
"B  c gray20",
"V  c #343333",
"C  c #343434",
"Z  c #353535",
"A  c gray21",
"S  c #373737",
"D  c #35393C",
"F  c gray22",
"G  c #393939",
"H  c gray23",
"J  c #393D3F",
"K  c #3C3C3C",
"L  c gray24",
"P  c #3D3E3E",
"I  c #3E3E3E",
"U  c #3F3F3F",
"Y  c #4A473D",
"T  c #7F6E29",
"R  c #6D6236",
"E  c #776F3C",
"W  c #383D46",
"Q  c gray25",
"!  c #404141",
"~  c #414141",
"^  c gray26",
"/  c #434343",
"(  c #414244",
")  c #444444",
"_  c gray27",
"`  c #464646",
"'  c gray28",
"]  c #47474A",
"[  c #484848",
"{  c #494949",
"}  c gray29",
"|  c #4B4B4B",
" . c #4C4C4C",
".. c gray30",
"X. c #4E4E4E",
"o. c gray31",
"O. c #55534D",
"+. c #4F4F50",
"@. c #4E4E51",
"#. c #4F4F51",
"$. c #484F5C",
"%. c #4F5456",
"&. c #505050",
"*. c #515151",
"=. c gray32",
"-. c gray33",
";. c #555555",
":. c #565656",
">. c gray34",
",. c #515758",
"<. c #5D5359",
"1. c #52585F",
"2. c #585858",
"3. c #5A5A5A",
"4. c #5B5B5B",
"5. c #5B5B5D",
"6. c #5D5D5D",
"7. c gray37",
"8. c #5F5F5F",
"9. c #645858",
"0. c #605B5F",
"q. c #745E51",
"w. c #7E654C",
"e. c #60605F",
"r. c #6C645E",
"t. c #7F6852",
"y. c #766B5D",
"u. c #7A6A58",
"i. c #4D4E61",
"p. c #484E66",
"a. c #474F68",
"s. c #4B5166",
"d. c #4B5467",
"f. c #465069",
"g. c #515862",
"h. c #5D5C63",
"j. c #595C66",
"k. c #565E6C",
"l. c #606060",
"z. c gray38",
"x. c #626262",
"c. c gray39",
"v. c #656565",
"b. c gray40",
"n. c #636A6C",
"m. c #6A6A6A",
"M. c #6D6D6D",
"N. c #717171",
"B. c #737272",
"V. c #727273",
"C. c gray45",
"Z. c #747474",
"A. c gray46",
"S. c #767676",
"D. c #777777",
"F. c gray47",
"G. c #797878",
"H. c #797979",
"J. c gray48",
"K. c #7B7A7A",
"L. c #7B7B7B",
"P. c #7D7B79",
"I. c #7D7C7C",
"U. c #7E7C7C",
"Y. c #7E7E7E",
"T. c #7F7E7E",
"R. c gray50",
"E. c #8A643F",
"W. c #846545",
"Q. c #856545",
"!. c #856646",
"~. c #866647",
"^. c #866747",
"/. c #876747",
"(. c #8A6541",
"). c #8A6642",
"_. c #8A6744",
"`. c #886747",
"'. c #896847",
"]. c #8A6846",
"[. c #8A6847",
"{. c #8A6947",
"}. c #876748",
"|. c #83674E",
" X c #876848",
".X c #876849",
"XX c #87694C",
"oX c #876B4F",
"OX c #896848",
"+X c #886849",
"@X c #886949",
"#X c #8A6948",
"$X c #8A6A49",
"%X c #88694A",
"&X c #896A4A",
"*X c #896A4B",
"=X c #8A6A4A",
"-X c #8A6A4B",
";X c #8A6B4B",
":X c #896B4C",
">X c #886B4D",
",X c #8A6B4C",
"<X c #8B6B4C",
"1X c #8A6B4D",
"2X c #817548",
"3X c #866C50",
"4X c #98903A",
"5X c #A69A28",
"6X c #CFA809",
"7X c #E9C906",
"8X c #A49D54",
"9X c #808080",
"0X c #818181",
"qX c #828080",
"wX c gray51",
"eX c #838383",
"rX c #848484",
"tX c gray53",
"yX c #898989",
"uX c gray54",
"iX c #8B8B8B",
"pX c #8E8E8E",
"aX c gray56",
"sX c #909090",
"dX c gray57",
"fX c #959595",
"gX c #979797",
"hX c #989898",
"jX c #9B9B9B",
"kX c gray61",
"lX c #9D9D9D",
"zX c #9F9F9F",
"xX c #A0A0A0",
"cX c #A2A2A2",
/* pixels */
"                                                                                                                                ",
"                                                                                                                                ",
"                                                                                                                                ",
"                                tXI.                                                                                            ",
"                              I.F.F.F.F.                                                                                        ",
"                              F.F.F.F.F.F.F.F.F.                                                                                ",
"                              F.F.F.F.F.F.F.F.F.F.C.                                                                            ",
"                              F.D.F.F.F.F.F.F.F.F.z.[ 3.                                                                        ",
"                              I.C.D.D.F.F.F.F.F.C...^ ..                                                                        ",
"                              wXI.F.C.D.D.F.F.F.z.^ ^ [                                                                         ",
"                                tXI.I.F.C.D.F.F.z.^ ^ ( 5.                                                                      ",
"                                  gXwXF.wXC.z.v.3.^ Y T 2X  F.D.3.*.*.*.*.                                                      ",
"                                    jXsXuXC...*...] R 6X7X8XC.z.*.*.*.*.*.*.*.*.    # X X X                                     ",
"                                        xXaX6...*.*.O.E 5X4Xe.^ ^ ......L ..*.*...A * @ X X                                     ",
"                                          xXaXM.*...*.+.+.+.3.*.L ^ ^ ^ j [ A ^ *...[ L p                                       ",
"                                          kXxXkXI.6...*.*.*.*.[ L L L m L A X * ^ *.*.*...*...                                  ",
"                                          kXkXkXkXaXz.*.*.*.*...L ^ L p A 8 X @ : ^ *...' ..*.                                  ",
"                                            gXuX  kXjXD.*...*.[ L L L A *.[ X [ A 8 *...' ' *.                                  ",
"                                            tXwX  v.gXkXI.6.*.' L L L A *.z.3 j * F *...' ' *.                                  ",
"                                            wXv.3 >.wXuXxXD.[ ..[ ^ L m A >...: 3 ' *.*.' ' *.                                  ",
"                                            wXD.^ z.C.L wX' [ >...[ L j F L L F L ..*...' ' *.                                  ",
"                                              F.m.D.M.3 p e [ 6.>.*.[ j ^ L L F L ....' ^ ' ..                                  ",
"                                                sXuX^ 3 3 3 A 6.6.3...m ' L L L L [ ..^ ^ ^ [                                   ",
"                                                j j 3 3 3 3 ^ z.>.[ ' ^ ..' ^ L F [ [ ^ ^ '                                     ",
"                                                : A j > 3 8 ..>.F m A A F ....' ^ ..' ^ ^ '                                     ",
"                                                > A A 8 3 3 A ^ m A m p j A ' *.....' ^ ^ '                                     ",
"                                                * m m j > > p F A A m 3 F e   *.*.*.  ^ ^ [                                     ",
"                                                @ e m F j > > j j m e 3 F j     *.*.    ^ [                                     ",
"                                                3 3 A F F A e * * > 3 j F A :                                                   ",
"                                                3 e j F F F A m m m A F F m *                                                   ",
"                                                * : p F F F F F F F F F A p >                                                   ",
"                                                e 3 8 F F F F F F F F F A m e                                                   ",
"                                                > 3 > A F F F F F F F F F A 8                                                   ",
"                                                3 3 > m F F F F F F F F F A :                                                   ",
"                                                : 3 : e j A F F F F A A A m :                                                   ",
"                                                3 3 : e j m F m m A m j m m e                                                   ",
"                                                e 3 > 3 F F A j m m A m j p 8 $                                                 ",
"                                                3.3 3 8 A V m j j f u b n v v 6                                                 ",
"                                                C.m 3 3 p p i x D W $.g.p.j.r.w.#X                                              ",
"                                                  C.j : 8 %.1.d.k.n.h.<.q.3X,X,X,X,X                                            ",
"                                                  uX>.> J f.a.i.0.u.XX,X,X,X,X,X,X,X!.                                          ",
"                                                    wXL ,.s.9.|.,X,X,X,X,X,X,X,X,X,X#X#X                                        ",
"                                                      P.y.t.XX,X,X,X,X,X,X,X,X,X,X.X#X#X.X                                      ",
"                                                        ,X,X,X,X,X,X,X,X,X#X#X#X,X#X!.'.`.                                      ",
"                                                        ,X#X#X,X,X#X#X#X.X!.!.!.#X`.).).).).                                    ",
"                                                        #X!.#X,X,X!..X#X!.#X'.).).'.#X,X#X#X,X                                  ",
"                                                          !.,X,X#X!.,X#X`.).`.#X,X,X,X#X!.,X,X,X                                ",
"                                                            #X#X,X,X'.).'.#X,X,X,X,X,X#X!.#X,X,X                                ",
"                                                            !..X#X`.`.#X,X,X,X#X.X!.}.,X#X!.#X#X#X                              ",
"                                                              #X`.#X#X,X,X,X#X!.!.#X#X,X,X#X!.!.#X,X                            ",
"                                                              E.#X,X,X,X,X#X!.,X,X,X,X,X,X,X,X,X,X,X,X                          ",
"                                                                ,X,X#X#X,X#X,X,X,X,X,X,X,X,X,X,X,X,X#X,X                        ",
"                                                                ,X,X!.#X,X,X,X,X,X,X,X,X,X,X,X,X,X#X!.}.,X                      ",
"                                                                ,X#X!.,X#X#X,X,X,X,X,X,X,X,X,X,X,X,X#X#X,X,X                    ",
"                                                                  }.#X#X!.#X,X,X,X,X,X#X#X,X,X,X,X,X#X#X,X,X                    ",
"                                                                  #X,X!..X,X,X,X,X#X!.!.#X,X,X,X,X#X!.}.,X#X,X                  ",
"                                                                  ,X#X!.#X,X,X,X,X#X#X,X,X,X,X,X,X.X!.,X,X!.!.#X                ",
"                                                                    #X!.,X,X,X,X#X!.,X,X,X,X,X,X,X,X!.#X,X#X.X!.#X              ",
"                                                                    #X!.,X,X,X,X,X#X,X,X,X,X,X,X,X,X#X!.,X,X,X#X#X              ",
"                                                                      #X,X,X,X,X,X,X,X,X,X,X,X,X,X,X,X.X,X,X,X,X,X,X            ",
"                                                                        ,X,X,X,X,X,X,X,X,X,X,X,X,X,X,X,X,X,X,X,X,X,X,X          ",
"                                                                            ,X,X,X,X,X,X,X,X,X,X,X,X,X,X,X,X,X,X  ,X            ",
"                                                                                                                                ",
"                                                                                                                                "
};
