/* XPM */
static char *_df569e816594579bcbe706112fed6cecrMkFlfxfQ3hfqiU[] = {
/* columns rows colors chars-per-pixel */
"64 64 233 2 ",
"   c None",
".  c black",
"X  c #010101",
"o  c #020202",
"O  c #060606",
"+  c gray3",
"@  c #090909",
"#  c #0C0C0C",
"$  c gray5",
"%  c #0E0E0E",
"&  c #111111",
"*  c gray7",
"=  c #131313",
"-  c gray8",
";  c #151514",
":  c #161616",
">  c gray9",
",  c #181818",
"<  c #191919",
"1  c gray10",
"2  c #1B1B1B",
"3  c gray11",
"4  c #1D1D1D",
"5  c #1E1E1E",
"6  c gray12",
"7  c #1F2331",
"8  c #1C2239",
"9  c #202020",
"0  c gray13",
"q  c #222222",
"w  c #232323",
"e  c gray14",
"r  c #252525",
"t  c gray15",
"y  c #272727",
"u  c #242529",
"i  c #27292B",
"p  c #282828",
"a  c gray16",
"s  c #292A29",
"d  c #2A2A2A",
"f  c gray17",
"g  c #2C2C2C",
"h  c #2C2C2D",
"j  c #2D2D2D",
"k  c #2E2E2D",
"l  c gray18",
"z  c #2F2E2E",
"x  c #2F2F2E",
"c  c #2F2F2F",
"v  c #262B3A",
"b  c #2F3133",
"n  c gray19",
"m  c #313131",
"M  c #323131",
"N  c #323232",
"B  c gray20",
"V  c #323536",
"C  c #343434",
"Z  c #353534",
"A  c #353535",
"S  c gray21",
"D  c #373737",
"F  c #3B3A37",
"G  c #36393A",
"H  c #34383C",
"J  c gray22",
"K  c #393939",
"L  c #3A3A3A",
"P  c gray23",
"I  c #3C3C3C",
"U  c gray24",
"Y  c #3E3E3E",
"T  c #373C40",
"R  c gray25",
"E  c #414141",
"W  c gray26",
"Q  c #434343",
"!  c #424344",
"~  c #444444",
"^  c gray27",
"/  c #464646",
"(  c gray28",
")  c #4A4947",
"_  c #44494D",
"`  c #484848",
"'  c #494949",
"]  c gray29",
"[  c #4B4B4B",
"{  c #4C4C4C",
"}  c gray30",
"|  c #4E4E4E",
" . c gray31",
".. c #56554C",
"X. c #4D4D50",
"o. c #4F4F50",
"O. c #4F4F51",
"+. c #414858",
"@. c #444B5B",
"#. c #4A4E5F",
"$. c #4F5051",
"%. c #505050",
"&. c #505051",
"*. c #515151",
"=. c #535350",
"-. c gray32",
";. c #535353",
":. c gray33",
">. c #555555",
",. c #565656",
"<. c #585858",
"1. c gray35",
"2. c #5B5B5B",
"3. c #5A5A5D",
"4. c gray36",
"5. c #5D5D5D",
"6. c gray37",
"7. c #6E5E56",
"8. c #635758",
"9. c #6A6641",
"0. c #66644B",
"q. c #756150",
"w. c #7E6651",
"e. c #7A6755",
"r. c #77755B",
"t. c #4B5065",
"y. c #4F5466",
"u. c #4A5268",
"i. c #4C5368",
"p. c #505865",
"a. c #545C65",
"s. c #606060",
"d. c gray38",
"f. c #636061",
"g. c #626262",
"h. c #626263",
"j. c #676260",
"k. c #646464",
"l. c gray40",
"z. c #676767",
"x. c #6E6A62",
"c. c #6E6D65",
"v. c #6A6A6A",
"b. c #696C69",
"n. c #6C6C6C",
"m. c #6D6D6D",
"M. c #6E6D6D",
"N. c #6F6F6F",
"B. c gray44",
"V. c #717171",
"C. c #727272",
"Z. c #737272",
"A. c #727273",
"S. c #747472",
"D. c gray46",
"F. c #777777",
"G. c #767779",
"H. c gray47",
"J. c #797979",
"K. c gray48",
"L. c #7D7B7B",
"P. c #7C7C7C",
"I. c gray49",
"U. c #7E7E7E",
"Y. c gray50",
"T. c #856646",
"R. c #866646",
"E. c #866647",
"W. c #866747",
"Q. c #886542",
"!. c #8A6642",
"~. c #8A6643",
"^. c #8A6743",
"/. c #886746",
"(. c #8A6845",
"). c #896847",
"_. c #8A6846",
"`. c #876748",
"'. c #876848",
"]. c #876849",
"[. c #886848",
"{. c #896848",
"}. c #896948",
"|. c #886849",
" X c #886949",
".X c #8A6948",
"XX c #8A6949",
"oX c #8A6A49",
"OX c #88694A",
"+X c #89694A",
"@X c #896A4A",
"#X c #896A4B",
"$X c #8A6A4A",
"%X c #8A6A4B",
"&X c #8A6B4B",
"*X c #896A4C",
"=X c #8A6B4C",
"-X c #8B6B4C",
";X c #8A6B4D",
":X c #886B4E",
">X c #8B6C4C",
",X c #896C4E",
"<X c #866B50",
"1X c #866C50",
"2X c #866C52",
"3X c #B6A81B",
"4X c #968D2D",
"5X c #C3B528",
"6X c #FEE700",
"7X c #9C954F",
"8X c #AFA545",
"9X c #808080",
"0X c #818080",
"qX c gray51",
"wX c #838383",
"eX c #848383",
"rX c #848484",
"tX c gray52",
"yX c gray53",
"uX c #888888",
"iX c gray54",
"pX c #8B8B8B",
"aX c #8D8D8D",
"sX c #8E8E8E",
"dX c #929292",
"fX c #939393",
"gX c gray58",
"hX c #959595",
"jX c gray59",
"kX c #9A9A9A",
"lX c #9B9B9B",
"zX c gray61",
"xX c #9F9F9F",
/* pixels */
"                                                                                                                                ",
"                                                                                                                                ",
"                                                                                                                                ",
"                                rXrX                                                                                            ",
"                                P.H.H.H.                                                                                        ",
"                                H.H.H.H.H.H.H.                                                                                  ",
"                              H.H.H.H.H.H.H.H.H.H.H.                                                                            ",
"                              H.H.H.H.H.H.H.H.H.H.H.C.1.                                                                        ",
"                              P.D.C.D.H.H.H.H.H.H.H.h./ 1.    %.                                                                ",
"                                wXL.C.z.C.H.H.H.H.S...! h.  %.%.%.%.%.%.      < . . .                                           ",
"                                  eXm.%.,.z.C.H.G.7X3X0.C.1.| %.%.| | %.%.%./ - . . .                                           ",
"                                    dXm.%.| ,.h.c.5X6X8X3.| E / ] / n ] %.%./ n f < +                                           ",
"                                      kXwX4.%.| %.9.4Xr.$./ U U E U A | j A | %.%.| / |                                         ",
"                                        xXdXv.%.X.X.X.%.,./ U U U f U < . . j %.%.| | %.%.                                      ",
"                                            gXH.1.| %.%.%.] U U K e ] e . f f / %.] E | %.                                      ",
"                                              xXuXz.%.%.%.] U U U j %.E O ,.f f %.| E ] %.                                      ",
"                                              xXxXgXH.1.| / U U U n K 4.< + + j %.| E ] %.                                      ",
"                                              kXaXgXxXrX1.| ] E U j K %.] e n / %.| E ] %.                                      ",
"                                              rXwX  4.rXgXm.,.| / j K U U U U | | E E E ]                                       ",
"                                              wXwX  A D.xXkXwX] ] n E K E U K | ] E E E /                                       ",
"                                                wXU U P.,.C.C.j / A ] E U U U ] ] E E E /                                       ",
"                                                P.h.h.uXj e e 0 ] %.%.] E E U ] 4.] E E /                                       ",
"                                                  wXaXP.f 4 4 4 E h.1.,.| | E ] z.z.] E /                                       ",
"                                                    ] e 4 4 4 e ,.4.%.] / | | | z.H.C.%.]                                       ",
"                                                  # n n 4 4 4 0 ] / A n A j / %.h.H.H.m.|                                       ",
"                                                    f K f < 4 4 K K n A n 0 A K h.D.H.D.1.                                      ",
"                                                    4 A n e < < n K A A j 0 K 0   H.H.H.                                        ",
"                                                    # f A A f < 4 j j j 0 f K f     H.                                          ",
"                                                    < 0 K K K n < = = = e K K n                                                 ",
"                                                  # f < n K K K A n n n K K A n <                                               ",
"                                                    # - n K K K K K K K K K A j 4                                               ",
"                                                    f < f K K K K K K K K K A A 0                                               ",
"                                                    4 < 4 K K K K K K K K K K A 4                                               ",
"                                                    < < 0 K K K K K K K K K K n =                                               ",
"                                                    4 4 < j n A K K K K A A A A 4                                               ",
"                                                    < 4 < e n n K A n A n n n n e                                               ",
"                                                    4 4 < 0 K K A n n n A n j j e =                                             ",
"                                                    0 4 4 < n n n n j j u f 7 8 v F                                             ",
"                                                    h.f 4 < 0 j f b H T +.@.#.y.j.1X=X                                          ",
"                                                    uXz.f < - i _ a.i.b.h.8.w.1X=X=X=X=X                                        ",
"                                                      uX,.- V p.u.x.e.<X=X>X=X=X=X=X=X#XE.                                      ",
"                                                        P.U G t.7.>X=X=X=X=X=X=X=X=X=X=X#X#X                                    ",
"                                                          P.) q.=X=X=X=X=X=X=X=X=X=X=X#X#X#X#X                                  ",
"                                                              =X=X=X=X=X=X=X=X=X#X#X=X#XE./.).Q.                                ",
"                                                            =X=X#X=X=X=X#X#X#XE.E.E.#X).Q.Q.Q.).#X                              ",
"                                                            =X'.'.=X=X#XE.#XE.#X#XQ.Q.).#X#X#X=X=X                              ",
"                                                            =XE.#X=X#XE.#X#X).Q.Q.#X=X=X=X#XE.#X=X=X                            ",
"                                                              #X#X#X=X#X#XQ.).#X=X=X=X=X=X=X'.`.=X=X=X                          ",
"                                                                #XE.=X).Q.#X=X=X=X=X#XE.E.#X=X'.`.#X#X=X                        ",
"                                                                  #XQ.).#X=X=X=X#XE.E.#X#X=X=X=X'.E.#X=X=X                      ",
"                                                                  ).#X=X=X=X=X'.'.#X=X=X=X=X=X=X=X=X=X=X=X                      ",
"                                                                    =X=X=X#X=X#X=X=X=X=X=X=X=X=X=X=X=X=X#X=X                    ",
"                                                                    =X=X'.'.=X=X=X=X=X=X=X=X=X=X=X=X=X#XE.E.#X                  ",
"                                                                      #XE.#X#X#X=X=X=X=X=X=X=X=X=X=X=X=X#X#X=X=X                ",
"                                                                      `.'.#XE.#X=X=X=X=X=X#X#X=X=X=X=X=X=X#X=X=X=X              ",
"                                                                      #X=X#XE.=X=X=X=X=X'.E.#X=X=X=X=X=X'.E.#X#X=X=X            ",
"                                                                        =XE.#X=X=X=X=X#X'.#X=X=X=X=X=X#XE.=X=X#XE.#X=X          ",
"                                                                        =XE.#X=X=X=X=XE.#X=X=X=X=X=X=X=X`.'.=X=X#XE.'.          ",
"                                                                          E.#X=X=X=X=X#X=X=X=X=X=X=X=X=X#XE.#X=X=X#X#X=X        ",
"                                                                            =X=X=X=X=X=X=X=X=X=X=X=X=X=X=X#X#X=X=X=X=X=X=X      ",
"                                                                            =X=X=X=X=X=X=X=X=X=X=X=X=X=X=X=X=X=X=X=X=X=X=X      ",
"                                                                                =X=X=X=X=X=X=X=X=X=X=X=X=X=X=X=X=X=X=X=X        ",
"                                                                                                                                ",
"                                                                                                                                "
};
