/* XPM */
static char *_a77b13e7d814d3d856867859744b69104F5Zy6YCszRUMhk[] = {
/* columns rows colors chars-per-pixel */
"64 64 222 2 ",
"   c #170B01",
".  c #180D0B",
"X  c #1E1202",
"o  c #1F1A06",
"O  c #241601",
"+  c #251906",
"@  c #2E1D06",
"#  c #231B09",
"$  c #2B1C0B",
"%  c #251508",
"&  c #321C03",
"*  c #321F0B",
"=  c #3A1E0C",
"-  c #2B1D11",
";  c #261A13",
":  c #331D10",
">  c #2B220D",
",  c #2E2207",
"<  c #342105",
"1  c #3B2503",
"2  c #3D2A05",
"3  c #35230B",
"4  c #3B250C",
"5  c #3D2A0C",
"6  c #312D0A",
"7  c #3F3009",
"8  c #2D2411",
"9  c #2E251B",
"0  c #342413",
"q  c #3B2511",
"w  c #362B14",
"e  c #3C2B12",
"r  c #342B1B",
"t  c #3D2D1B",
"y  c #33251A",
"u  c #3C3214",
"i  c #3D341C",
"p  c #3F391A",
"a  c #363111",
"s  c #3B2D23",
"d  c #3E3422",
"f  c #422C05",
"g  c #41240D",
"h  c #422D0D",
"j  c #4B2F0D",
"k  c #43310D",
"l  c #4A340E",
"z  c #4E3A0C",
"x  c #46350A",
"c  c #51330F",
"v  c #422412",
"b  c #432D12",
"n  c #492E14",
"m  c #432D1A",
"M  c #4A2D1C",
"N  c #462619",
"B  c #453314",
"V  c #4A3514",
"C  c #453916",
"Z  c #4C3A15",
"A  c #45341A",
"S  c #4B351B",
"D  c #453A1C",
"F  c #4D3B1B",
"G  c #523511",
"H  c #533C15",
"J  c #52361B",
"K  c #523D1D",
"L  c #5A3E1B",
"P  c #583C17",
"I  c #453522",
"U  c #4A3524",
"Y  c #453A23",
"T  c #4C3C23",
"R  c #4C3D2A",
"E  c #503521",
"W  c #533E23",
"Q  c #593E22",
"!  c #533D2A",
"~  c #4A3D30",
"^  c #4E411E",
"/  c #4C4016",
"(  c #524216",
")  c #53411D",
"_  c #5A431D",
"`  c #56481F",
"'  c #5B491E",
"]  c #5D4217",
"[  c #684E1F",
"{  c #60521E",
"}  c #4D4124",
"|  c #4D432A",
" . c #4E492C",
".. c #454223",
"X. c #554223",
"o. c #594324",
"O. c #554823",
"+. c #5C4A25",
"@. c #55442A",
"#. c #5A452A",
"$. c #564A2D",
"%. c #5C4A2B",
"&. c #5E5123",
"*. c #5D512D",
"=. c #4F4731",
"-. c #544432",
";. c #544A33",
":. c #5C4C32",
">. c #5B4C39",
",. c #564A38",
"<. c #5D5135",
"1. c #56513B",
"2. c #5D543D",
"3. c #5F583E",
"4. c #624523",
"5. c #624C25",
"6. c #624C2C",
"7. c #664A2E",
"8. c #645225",
"9. c #6C5123",
"0. c #695925",
"q. c #64522C",
"w. c #6A542C",
"e. c #66592B",
"r. c #695B2D",
"t. c #665A26",
"y. c #634D32",
"u. c #634F3C",
"i. c #655735",
"p. c #645333",
"a. c #695531",
"s. c #665936",
"d. c #665933",
"f. c #6A5931",
"g. c #6A5A35",
"h. c #64543A",
"j. c #6A563B",
"k. c #655A3B",
"l. c #695A38",
"z. c #6B5C3A",
"x. c #715C36",
"c. c #6B602A",
"v. c #6E613E",
"b. c #756137",
"n. c #70623F",
"m. c #5D4D40",
"M. c #5D5243",
"N. c #635544",
"B. c #645A42",
"V. c #6B5C43",
"C. c #6A5C4A",
"Z. c #685846",
"A. c #705E46",
"S. c #6F6143",
"D. c #686148",
"F. c #726343",
"G. c #72634C",
"H. c #75694B",
"J. c #6D6353",
"K. c #746653",
"L. c #746954",
"P. c #7A6D54",
"I. c #7C6E5C",
"U. c #787357",
"Y. c #766B65",
"T. c #7D7362",
"R. c #7B746B",
"E. c #767465",
"W. c #7E7771",
"Q. c #84745C",
"!. c #887A65",
"~. c #837873",
"^. c #887E72",
"/. c #8D847B",
"(. c #988B7A",
"). c #92836C",
"_. c #8A8182",
"`. c #9F9583",
"'. c #9E948C",
"]. c #9B8E85",
"[. c #A9978A",
"{. c #A79888",
"}. c #A49791",
"|. c #AAA48D",
" X c #ACA695",
".X c #BCB4A1",
"XX c #C0AF9D",
"oX c #C3B39A",
"OX c #C3B6A3",
"+X c #C5BBA3",
"@X c #CBBBA3",
"#X c #CBBDAD",
"$X c #C2B9AA",
"%X c #CABFB2",
"&X c #D0C4AD",
"*X c #D2C8A8",
"=X c #CCC1B4",
"-X c #D5C9BA",
";X c #D4CCB7",
":X c #DDD3BC",
">X c #CEC4AB",
",X c #E4D9C5",
"<X c #E9DAC8",
"1X c #E9DFD5",
"2X c #EEE3CD",
"3X c #F3E6D4",
"4X c #F5ECD5",
"5X c #FBEDD3",
"6X c #F5EEDC",
"7X c #FEF3DC",
"8X c #FFF9DC",
"9X c #F6F0DA",
"0X c #F6E8CE",
"qX c #F8EFE8",
"wX c #FCF5E3",
"eX c #FFFBE4",
"rX c #F4F3EA",
"tX c #FEF4EB",
"yX c #FFFCEB",
"uX c #FEF5F3",
"iX c #FFFDF3",
"pX c #FFFCFC",
/* pixels */
"f.r.e.e.t.e.e.q.i.i.j.s.f.r.r.c.0.0.e.r.l.z.z.z.s.r.b.r.w.a.K l l ) q.s.s.g.z.s.s.l.g.z.g.f.w.8.w.w.w.z.n.z.i.q.w.9.9.9.9.w.f.f.",
"f.q.8.&.8.8.8.q.%.y.p.l.z.f.q.{ { 8.r.g.l.i.p.%.g.q.r.5.w.x.6.+.o.q.g.a.q.p.s.s.s.i.p.q.a.a.f.x.b.x.a.q.*.%.*.q.5.[ [ [ 9.w.a.s.",
"g.q.' ( ( ( ( F %.#.! ! X.( ( z ( ( ) X.X.@.$.%.X.Z ` Z ( _ 2 & & f F ) F ^ X.X.O.X.O.O.O.( Z Z l Z O.+.$.$.O.O.H P ] ] ' +.q.s.",
"x.a.o.H Z Z l k F A A A F K ) _ ' ` ^ D D I Y Y C C O.` +.+.V h 2 Z o.+.O.X.D B D D F X.X.) K K _ _ F D D T T F k l G P ) o.q.k.",
"j.y.o.K H H V V m U ! ! W F Z Z B B A Y R R Y A p u ^ ^ F K h b h B F D F D A e @.T A B h B Z F X.) D D Y Y Y e B l V H _ +.k.V.",
"j.y.o.F B B B B U U U U S T X.+.F D I Y R R ~ R e u O.%.+.X.5 5 3 B K @.+.@.A e Y T T } W K K F X.O.T i d Y Y e S V l B F @.<.B.",
"y.#.T B 5 b S ! 0 : : 0 m U F F e t I s y 9 9 r w , u C F F 3 < & h F T D A B e 3 3 e B B B h 5 X.} i > o 8 r i T S h 2 B T -.,.",
"@.T A e u T p.A.[.[.[.[.{.!.V.T 3 -.T.].}.'.'.`.`.P.h.D A A 3 5 3 b S A X.V.).{.{.(.P.h.W B b b Y G.(.|. X X{.(.;.T h 4 b Y | =.",
"> > u D u u D OXyXqXiXiXyXeX<.;.R 0 %XiXiXiXiXtXyX&X} <.X.T b 4 b 4 o.X.@.P.eXeXeXeX@X@.y.S F S ! L.yXyXiXiXyX,Xk.@.S S A e 8 # ",
"8 > w p p p i |.yXyXiXyXyX9X<.;.Y w #XyXtXiXiXtXwX>X<.k.@.T B B 3 3 #.@.:.Q.eXeXeXwX@Xh.j.T F S ;.Q.yXyXyXyXyX,Xk.@.b b B A r 8 ",
"i Y ....a u  .+XyXwXyXyXyX4Xk. .i t #XiXiXiXtXwXyX&X@.} D D q * n h ! D ! P.7XeXeX8X@Xp.%.S F W S P.7XyXiXyXyX,XC.#.B B T @.R Y ",
"|  .| D 6 a  .|.yXyXyXyX9X:XD.$.D Y XX3XtXiXyXtX7XOX<.$.#.#.A q 3 5 W X.h.!.0X8X8X5XoXV.y.B B S h.!.2XwXyXwX9X:Xh.o.B B F X.@.=.",
"k.<.D X.X.O.D k.C.C.C.J.L.P.O.*.O.e V.Z.Z.N.m.,.K.G.$.:.o.A q n b Z o.O.@.$.H.S.<.V.k.T #.F K o.W @.P.K.J.J.L.B.$.X.K K X.@.:.k.",
"V.k.F O.X.+.C T >.u.,.,.;.$.X.%.O.k X.I -.-.-.-.T $.$.a.y.! M S < b X.#.p.p.<.$.} $.$.O.o.F Z Z a.%.<.;.=.;.>.@.W K K o.o.#.h.C.",
"#.%.V B < f h S q m m A S n F K l 2 S q T I t t D A B b F S = = 4 B Z B F D e u A B e u B h b Z Z B B A i i Y u 5 2 f h B Z X.:.",
"#.%.B Z f B 4 & 0 0 % $ 3 @ B V 7 2 5 O y - - 0 + 3 B b F S 4 g & h Z B D A + 0 > $ , e 5 5 1 f D B 3 > # # > > e 2 f h V F O.%.",
"l.a.Z _ F @.k.K.R.R./.Y.^.!.} z.^ u P./.~.Y._.W.W.J.-.;.@.X.1 B 1 1 o.#.-.M.^.~.R.~.I.@.X.V H Z l.3.T.E.E.W./.J.>.#.n V K _ a.f.",
"p.l.+.X.2 D P.%XiXiXpXrXiX6XD.;.u D .XyXpXpXpXpXpX=XN.:.$.6.f 1 h f X.;.N./.uXpXpXiX=XK.:.l z Z C U.wXiXiXiXpX1XZ.y.S J _ o.f.f.",
"a.%.O.K b W Z.-XtXrXiXiXiXyXk.<.D p =XiXpXpXuXrXiX$XY @.F o.b h x B K ! R Y.tXuXtXtXOXh.+.Z l ) s.U.yXyXrXrXiX<XZ.y.n V K _ w.w.",
"z.o.F Z K #.$.OXyXiXiXyXwX3X@.p.D 3 #XyXtXiXiXiXyX;X;.F.K F 4 h & h K y.-.!.iXiXtXyX@Xh.y.V f l %.k.eXwXiXiXiX-XZ.6.h j H ) q.q.",
"z.q.+.H V o.h.:XyXyXiXiXyX8Xp.$.S 5 &XyXiXiXyXyXyX*XD q.K o.n b f K K o.@.I.yXyXyXyX+Xp.6.F j K q.H.eXeXyXyXyX<Xj.6.n G K _ a.a.",
"a.q.o.H l o.p.oXyXwXwXwX9X<XV.%.F D oX4XeXyXeXeX8X*X*.a.K Q g = g n S o.h.Q.5X7X5X5XoXV.j.K h V ) F.8X8XyXwXwX<Xu.%.n G P _ q.a.",
"%.+.l V V o.X.V.h.2.B.D.C.z.K K B 5 j.V.G.B.h.<.z.d.x K B F g M v b S S W D S.S.i.S.k.F 6.J V J 5.o.F.$.N.2.N.h.#.o.j c G V +.5.",
"+.%.h l f K K F @.Y Y T D D +.+.K V o.D @.T } ^ k / ( ) K J = v = g S S y.A D F F ) O.F 6.K J J o._ O.D @.T U S o.Q j c l l o.o.",
"l.%._ H P 4.7.a.p.<.:.:.<.q.5.5.K K 6.:.:.h.$.%.q.+.` ) K J M v v M W o.#.#.%.*.%.O.6.6.6.y.J J 5.7.6.y.:.:.h.h.y.7.L L K K a.j.",
"V.p.o.K L 4.7.7.p.:.:.:.:.q.5.5._ K 6.%.:.h.$.*.*.+.+.+.+.! M N M E W ! o.#.*.h.*.O.%.%.6.y.W Q 5.5.7.:.:.:.:.p.6.7.L L o.o.z.V.",
"h.:.X.V V G K K W T T T ^ ) ) ( H l K F Y } D ..D D ^ X.o.W M v 4 n W @.@.T D C } C T S F Q S J L L K W T T T W K K j V K W h.h.",
"3.:.X.B f f j V B A A A C Z H H z x V B A I w t A u B D ! ! U m v S ! o.T A e e u w A B B J b V H H F S A A A S B V 1 h F ! h.2.",
"D.B.;.K B l H K F F } } X.O.+.+.H z _ W R R r y 8 $ O @ e A M v n S m 4 O O $ 0 r e T T W o.F K 4.4.o.X.T T T T K K h V o.;.C.C.",
"1.,.$.F Z l K o.F T } } X.O.+.5.z x _ o.R ~ 9 - % X X O * 4 q 4 4 3 3 @ O X X # $ 0 R @.X.X.Z K 7.4.o.X.X.} T T W K h Z X.@.M.,.",
"r i A B h f B K B B D D C Z ( _ f 1 Z S Y s ; . 9 s d d t w e v 3 2 e A Y I r ;   # I Y S Z 2 h _ L K S A D A A F Z 4 B A i d 9 ",
"o > e B b h B K B B A C B Z ( ( f 1 V B A s %   - t R R w @ & 3 4 < & e Y R d 8   O i A A B 2 h _ K V Z A A A B D D 5 B A w 0 X ",
"T T F D B Z F X.F K W K X.o.6.q.f V K X.X.T T T Y F :.:.$.! q 4 b b ! @.$.:.T D } X.X.O.o.W S B q.5.' ) ( ) K K K F B A T ! R R ",
"X.) F B B B D K W W X.X.o.o.6.6.h Z K X._ ) ) _ o.O.a.%.#.W q 4 5 5 X.o.6.a.O.O.) ) _ X.X.F S h 5.' _ P H K K K F S B A Y R ! ! ",
"i.p.+.X.X.O.+.+.%.6.6.%.6.6.6.6.K X.%.6.q.q.q.q.q.+.i.%.@.W q 4 5 5 X.o.p.g.+.%.q.q.6.q.y.+.o.K w.w.8.q.q.q.5.6.+.#.@.@.$.;.h.k.",
"l.p.O.^ X.O.O.o.6.6.6.6.6.6.6.6.F K o.%.+.+.+.%.%.+.a.%.#.o.q 5 5 e X.o.6.a.+.+.%.+.%.%.%.#.o.K 5.5.5.5.5.5.5.%.X.o.X.! X.$.h.V.",
"z.p.O.F ) X.X.K X.X.o.o.o.o.o.o.K X.X.o.o.O.O.O.K Z +.o.#.o.q e q b X.X.o.%.F ) O.O.O.o.#.O.o.X._ ) K K _ X.X.W W W W T W @.h.V.",
"z.p.O.) F ) K F F F F F K K K W X.X.O.X._ _ _ ) k f K K o.o.q 4 q b W K K K k B ) K K ) o.o.X.X.X.K K K K K K K K K F F W #.i.z.",
"+.X.Z B 5 5 5 2 B B B B B V F K B B h h k f f f f 2 Z Z F T 4 4 3 4 F F F F 5 k f 5 2 2 5 b b e F V b h h h h h 5 5 5 5 B D X.+.",
"O.X.D B k 5 5 2 h f 2 4 4 f b V h 5 2 2 5 5 5 2 k 2 B B B S 4 3 < 3 D Z Z Z 2 k h 5 2 2 5 5 5 5 F V b h h h h h h 2 5 5 B F X.+.",
"i.p.D Z B B K F K K K K K X.+.%.F D Z F Z Z V B F ) p.%.o.W q b b b W X.+.6.K ) B F Z Z K F B S #.%.o.Q X.W K K F K k B Z F a.s.",
"s.i.F F D B X.K K W X.X.o.o.%.6.F F F K K K Z Z K ) p.%.@.W b b b b X.o.%.6.) ) Z K F F o.K S S 6.#.o.Q W W K K ) X.B Z F ) s.s.",
"p.p.F D B k K K K W W X.o.+.6.6.Z F K X._ ) K F F K 6.%.o.W q q 5 5 W X.%.6.F F F _ K K O.W S S y.6.o.W W W W K X.K 5 B D ) a.p.",
"%.q.F D B 5 F K K K W W X.o.%.6.Z F F K K K K ) F K 6.%.@.W 5 5 5 5 W O.%.6.K K ) O.K F o.W S S y.6.o.W W W X.X.K F 5 k D ) p.%.",
"i.i.O.F Z B X.X.K W W W X.o.%.6.Z Z F F Z F ) O.O.O.a.6.%.@.b b b b o.+.6.a.O.O._ O.F Z W F B S 7.6.o.W W X.X.X.X.X.7 B ) O.s.i.",
"s.i.O.K D B O.O.o.X.o.X.o.o.%.%.V Z F F Z F ) O.O._ 6.%.#.o.b q b b X.O.%.q._ O._ _ D Z W K B B 6.+.o.K W X.X.X.X.X.B D X.O.k.i.",
"q.%.D Z B B X.X.o.o.X.X.W o.o.%.B F K X.) K ) _ ) F o.X.T F 4 4 3 3 D F X.%.F K ) _ F F o.o.S B +.o._ K X.X.X.X.K X.B B D D :.:.",
"%.+.B B B V O._ X.X.W K K K W o.B F o.+.o.) _ _ _ F o.K F F 4 3 3 4 S D W o.K K K X.K X.%.#.S Z o._ K K X.X.X.X.K X.B B B B @.+.",
"f.*.` ( ) ` X._ o.K V V K W o.W o.o.Q X.W _ W X.+.K +.W W W v q b h W W Q %.K o.o.X.o.o.o.o.Q Q K o.o.K Z Z K o.X.O.O.) ) O.q.f.",
"f.&.) Z K _ o.o.o.K K K K W o.o.! W W K K K K K o.K %.o.! ! b b b b Q W o.%.K o.W W W W Q o.o.Q X.W K K F F K X.) X.) F F ) q.g.",
"v.p.O.D D D F F J J S S S S W W F F V V V B B l F Z o.W W W v 4 4 h K W W o.V J b b n V V V S S W K F V V S F F B S S S D O.i.F.",
":.%.@.T S B n B S S S S A S T ! b b b B B k h h Z B o.W W W 4 4 4 4 K K Q o.F F b h b B V B b b o.W F S S U S A B B B A T @.#.:.",
"w A T T U A E ! E W ! ! ! ! @.%.B Z Z F K K K Z K K 6.%.#.o.b b 2 h X.o.%.6.K K K K K K K K F F y.%.! W ! @.! W @.W U Y R Y t 3 ",
"+ w I T U S W #.W W ! ! ! @.#.y.B Z F K _ _ _ K _ _ 7.6.#.o.b b 2 2 K X.%.6.K K K K K K K F Z Z y.%.! W ! @.! W #.T I U R U q $ ",
"i I U I m m A E S S S F S W o.#.h h B V Z Z Z Z V Z +.X.K F 3 3 1 1 Z F X.o.Z Z B Z Z Z Z B h h +.o.K F F F S S T A t A U U U I ",
"@.R I B b b S F S n b h B Z K X.2 f k k V V l x k k X.K Z B < < 4 1 Z F K o.B B B Z Z Z Z Z B h o.K H V Z Z V V S B e e m U ! -.",
"k.k.@.X.F Z o.W Q K K K K _ +.+.Z Z Z F F K K K F K X.O.o.F B 5 h Z K X.o.X.K F K F F F F F Z B 7.5.' _ K K K K X.X.B D ! @.k.h.",
"l.k.X.F Z B o._ _ _ K K ( ) ` +.B B F K X.) ) K _ X.X.O.X.F n 5 5 k S K X.O.X.X.K K K K K F Z k +.' _ _ ) ( _ _ X.X.B B T X.k.j.",
"l.s.X.^ K ) a.w.w.w.q.7.q.q.q.q.X.o.%.6.a.a.6.6.q.6.6.%.#.! S B b B F O.%.6.y.6.%.6.y.a.a.%.O.K q.8.8.8.q.q.q.q.w.q.F F ) X.k.j.",
"*.*.Z Z Z F 5.5.7.7.7.7.5.5.+.%.o.@.#.%.6.6.%.%.%.%.%.#.@.T m 4 4 h S W #.%.%.%.%.%.%.6.y.%.#.X.+.' 5.5.5.5.5.5.5.%.Z Z Z D %.%.",
"z.l.O.X.K F o.K o.+.%.%.%.%.o.o.@.@.@.@.O.O.O.O.+.+.$.;.$.T A e q B T o.$.$.#.@.@.o.@.@.$.#.$.O.X._ +.+.+.o.o.o.K X.Z F X.O.l.l.",
"k.s.X.X.X.F o.K K K W ! o.! ! W @.@.T T T F F F X.X.@.$.@.R I m b A Y ! @.X.T T T T Y T ! X.@.@.W K W W W W K K F X.D W o.O.k.k.",
"C C 3 5 q 3 n 4 4 4 4 q q q q q e e e 5 4 3 3 3 3 3 3 q q q 0 * 3 3 3 3 3 3 3 3 3 3 3 4 e q e q 4 4 q 4 4 4 4 4 4 b 3 5 5 3 S A ",
"C C < 3 3 < q = = = = 4 0 : : * 3 3 3 3 3 3 < < < & @ @ * 0 y q q 3 3 * * * 3 3 * 3 3 3 q q 3 * * = = = 3 3 3 3 3 4 & 3 3 3 A A "
};
